<?xml version="1.0" encoding="UTF-8" standalone="no"?>
<!-- Created with Inkscape (http://www.inkscape.org/) -->

<svg
   width="96"
   height="96"
   viewBox="0 0 25.4 25.399999"
   version="1.1"
   id="svg56462"
   xmlns="http://www.w3.org/2000/svg"
   xmlns:svg="http://www.w3.org/2000/svg"
   xmlns:rdf="http://www.w3.org/1999/02/22-rdf-syntax-ns#"
   xmlns:cc="http://creativecommons.org/ns#"
   xmlns:dc="http://purl.org/dc/elements/1.1/">
  <defs
     id="defs56456" />
  <metadata
     id="metadata56459">
    <rdf:RDF>
      <cc:Work
         rdf:about="">
        <dc:format>image/svg+xml</dc:format>
        <dc:type
           rdf:resource="http://purl.org/dc/dcmitype/StillImage" />
      </cc:Work>
    </rdf:RDF>
  </metadata>
  <g
     id="layer1"
     transform="translate(215.7955,-231.59523)">
    <g
       transform="matrix(1.3086074,0,0,1.5160268,-246.24047,-54.311451)"
       id="g56400">
      <path
         d="m 40.845224,203.31238 c 0.133015,0 0.252659,-0.008 0.252659,-0.1418 0,-0.10778 -0.117103,-0.12744 -0.226567,-0.12744 h -0.214475 v 0.26932 z m -0.188383,0.48851 h -0.157197 v -0.86983 h 0.39522 c 0.245659,0 0.36658,0.0757 0.36658,0.24746 0,0.15572 -0.116475,0.22347 -0.268572,0.23946 l 0.295299,0.38291 h -0.176288 l -0.274291,-0.37704 h -0.180743 z m 0.190291,0.19359 c 0.407947,0 0.728706,-0.26718 0.728706,-0.63036 0,-0.35732 -0.320759,-0.62611 -0.728706,-0.62611 -0.411129,0 -0.733159,0.26879 -0.733159,0.62611 0,0.36318 0.32203,0.63036 0.733159,0.63036 m -0.913903,-0.63036 c 0,-0.43306 0.418765,-0.75198 0.913903,-0.75198 0.490682,0 0.90945,0.31892 0.90945,0.75198 0,0.43677 -0.418768,0.7557 -0.90945,0.7557 -0.495138,0 -0.913903,-0.31893 -0.913903,-0.7557"
         style="fill:#0078c9;fill-opacity:1;fill-rule:nonzero;stroke:none;stroke-width:0.582592"
         id="path56052" />
      <path
         d="m 31.632746,192.42118 -0.383125,0.37278 c -0.03182,0.0315 -0.05028,0.0715 -0.05028,0.11353 v 5.34431 c 0,0.0411 0.01844,0.0821 0.05028,0.11353 l 0.386309,0.37065 c 0.03754,0.0363 0.09227,0.0576 0.1483,0.0559 0.05664,0 0.109469,-0.0203 0.14767,-0.057 l 0.382489,-0.37226 c 0.03182,-0.031 0.04899,-0.0709 0.04899,-0.11308 l -0.0025,-5.34163 c 0,-0.0416 -0.01714,-0.0821 -0.04964,-0.11247 l -0.381218,-0.37331 c -0.03691,-0.0373 -0.09035,-0.0587 -0.1483,-0.0587 -0.05792,0 -0.110742,0.0213 -0.148928,0.0576"
         style="fill:#0078c9;fill-opacity:1;fill-rule:nonzero;stroke:none;stroke-width:0.582592"
         id="path56056" />
      <path
         d="m 30.206142,193.4095 c -0.03946,0 -0.07637,0.0151 -0.101191,0.0405 l -0.383763,0.38825 c -0.02036,0.0203 -0.03244,0.0475 -0.03244,0.0747 v 4.36568 c 0,0.0283 0.01197,0.0544 0.03244,0.0751 l 0.397129,0.4 c 0.02608,0.0266 0.06428,0.0405 0.105023,0.0405 0.04007,-5.4e-4 0.07636,-0.0165 0.103108,-0.0432 l 0.371034,-0.39091 c 0.01909,-0.0219 0.03055,-0.0475 0.03055,-0.0741 v -4.38061 c 0,-0.0287 -0.01332,-0.0549 -0.03437,-0.0762 l -0.385673,-0.37974 c -0.02483,-0.0256 -0.06236,-0.0405 -0.10182,-0.0401"
         style="fill:#0078c9;fill-opacity:1;fill-rule:nonzero;stroke:none;stroke-width:0.582592"
         id="path56060" />
      <path
         d="m 28.705458,194.61767 c -0.03564,0 -0.07001,0.0106 -0.09227,0.032 l -0.383762,0.33278 c -0.01909,0.016 -0.02928,0.0363 -0.02928,0.0581 v 2.12419 c 0,0.0224 0.01153,0.0443 0.03182,0.0603 l 0.397129,0.32479 c 0.02417,0.0186 0.05792,0.0299 0.09356,0.0289 0.03627,0 0.07001,-0.0121 0.09293,-0.032 l 0.372306,-0.32638 c 0.0166,-0.0165 0.02799,-0.0378 0.02799,-0.0582 v -2.12898 c 0,-0.0213 -0.01138,-0.0422 -0.03055,-0.058 l -0.385672,-0.32586 c -0.02292,-0.0207 -0.05727,-0.0314 -0.09418,-0.0314"
         style="fill:#0078c9;fill-opacity:1;fill-rule:nonzero;stroke:none;stroke-width:0.582592"
         id="path56064" />
      <path
         d="m 35.191624,192.36395 c -0.05664,0 -0.110742,0.0209 -0.147656,0.0581 l -0.381218,0.37332 c -0.03247,0.0304 -0.04899,0.0709 -0.04899,0.11248 l -0.0033,5.34217 c 0,0.0416 0.01714,0.0821 0.04899,0.11248 l 0.38249,0.37279 c 0.03691,0.0367 0.09103,0.057 0.147656,0.057 0.05664,5.4e-4 0.110098,-0.0203 0.148299,-0.0565 l 0.386308,-0.37012 c 0.03247,-0.032 0.05028,-0.0726 0.05028,-0.11354 v -5.3443 c 0,-0.0426 -0.01786,-0.0821 -0.05028,-0.11414 l -0.383761,-0.37225 c -0.03754,-0.0367 -0.09103,-0.0576 -0.148929,-0.0576"
         style="fill:#0078c9;fill-opacity:1;fill-rule:nonzero;stroke:none;stroke-width:0.582592"
         id="path56068" />
      <path
         d="m 36.665515,193.4495 -0.385035,0.37972 c -0.02163,0.0213 -0.03308,0.0481 -0.03308,0.0762 v 4.38062 c 0,0.0272 0.01003,0.0528 0.02928,0.0741 l 0.371034,0.39091 c 0.02674,0.0266 0.06365,0.0432 0.103737,0.0432 0.04009,5.3e-4 0.07827,-0.0151 0.103736,-0.0405 l 0.397763,-0.40052 c 0.02036,-0.0203 0.03247,-0.0464 0.03247,-0.0747 v -4.36568 c 0,-0.0272 -0.01197,-0.0544 -0.03247,-0.0747 l -0.38249,-0.38825 c -0.02546,-0.0255 -0.06365,-0.0405 -0.10182,-0.0405 -0.04073,-5.3e-4 -0.077,0.0136 -0.103108,0.0401"
         style="fill:#0078c9;fill-opacity:1;fill-rule:nonzero;stroke:none;stroke-width:0.582592"
         id="path56072" />
      <path
         d="m 38.171547,194.64886 -0.385038,0.32638 c -0.01909,0.0154 -0.03055,0.0363 -0.03055,0.0582 v 2.12844 c 0,0.0203 0.01093,0.0416 0.02928,0.0581 l 0.370399,0.32639 c 0.02419,0.0203 0.05727,0.032 0.09356,0.032 0.03563,0.001 0.07,-0.0106 0.09356,-0.0289 l 0.398401,-0.32426 c 0.02036,-0.0165 0.0312,-0.0384 0.0312,-0.0597 v -2.12524 c 0,-0.0213 -0.01003,-0.0416 -0.02928,-0.0581 l -0.383761,-0.33279 c -0.02163,-0.0203 -0.05664,-0.032 -0.09227,-0.032 -0.03754,0 -0.07127,0.0106 -0.09547,0.0314"
         style="fill:#0078c9;fill-opacity:1;fill-rule:nonzero;stroke:none;stroke-width:0.582592"
         id="path56084" />
      <path
         d="m 35.608036,201.81848 c 1.799804,0.11731 3.879632,-0.71624 4.818993,-1.51727 1.544598,-1.31834 2.238935,-2.90814 2.238935,-4.96511 0,-3.95771 -3.28967,-6.55759 -8.39378,-6.55759 -3.424592,0 -6.445693,1.22288 -8.550342,3.41532 -1.454225,1.513 -2.237663,3.35559 -2.237663,5.33577 0,2.50228 1.230843,4.52621 3.423956,5.94161 1.634332,1.04901 4.00819,1.76472 6.826908,1.689 1.857082,-0.0502 3.721164,-0.46346 4.703164,-1.09277 0.807622,-0.51838 0.436586,-0.50823 0.178204,-0.47624 -0.180117,0.023 -0.420041,0.10884 -0.420041,0.10884 -1.432588,0.53705 -2.882995,0.85916 -4.447324,0.85916 -5.148022,0 -8.497517,-2.58708 -8.497517,-6.83544 0,-2.89107 1.410314,-5.33523 3.940095,-6.86796 1.544597,-0.95196 3.379404,-1.417 5.349133,-1.417 4.36459,0 7.446149,2.34763 7.409234,5.8392 -0.02418,2.15512 -0.486226,3.35293 -1.85199,4.65101 -1.265844,1.20421 -3.191659,1.50446 -4.360132,1.41167 -1.437679,-0.11354 -1.596149,-0.83464 -1.600602,-1.4314 v -0.0704 l -6.38e-4,-7.77087 c 0,-0.0677 -0.02227,-0.13379 -0.06236,-0.18984 l -0.315029,-0.43253 c -0.06299,-0.0886 -0.167379,-0.14074 -0.278118,-0.13968 -0.110742,5.4e-4 -0.214475,0.0538 -0.276846,0.1424 l -0.307391,0.43304 c -0.03946,0.0544 -0.06046,0.12003 -0.06046,0.18666 l -6.36e-4,7.71966 v 0.11202 c 0,0.003 6.36e-4,0.008 0.0019,0.0121 -0.0013,0.002 -0.0037,0.003 -0.0037,0.006 0,0.95675 1.192654,1.79672 2.774166,1.90124"
         style="fill:#0078c9;fill-opacity:1;fill-rule:nonzero;stroke:none;stroke-width:0.582592"
         id="path56088" />
    </g>
  </g>
</svg>
