<?xml version="1.0" encoding="UTF-8" standalone="no"?>
<!-- Created with Inkscape (http://www.inkscape.org/) -->

<svg
   width="127"
   height="64"
   viewBox="0 0 33.602083 16.933333"
   version="1.1"
   id="svg56462"
   xmlns="http://www.w3.org/2000/svg"
   xmlns:svg="http://www.w3.org/2000/svg"
   xmlns:rdf="http://www.w3.org/1999/02/22-rdf-syntax-ns#"
   xmlns:cc="http://creativecommons.org/ns#"
   xmlns:dc="http://purl.org/dc/elements/1.1/">
  <defs
     id="defs56456" />
  <metadata
     id="metadata56459">
    <rdf:RDF>
      <cc:Work
         rdf:about="">
        <dc:format>image/svg+xml</dc:format>
        <dc:type
           rdf:resource="http://purl.org/dc/dcmitype/StillImage" />
      </cc:Work>
    </rdf:RDF>
  </metadata>
  <g
     id="layer1"
     transform="translate(215.7955,-231.59523)">
    <g
       transform="matrix(1.3086074,0,0,1.5160268,-246.24047,-54.311451)"
       id="g56400">
      <path
         d="m 40.56525,198.39248 c 0.08886,0 0.168787,-0.005 0.168787,-0.0938 0,-0.0713 -0.07823,-0.0843 -0.151356,-0.0843 h -0.143278 v 0.17815 z m -0.125847,0.32314 h -0.105014 v -0.57538 h 0.264023 c 0.16411,0 0.24489,0.0501 0.24489,0.16369 0,0.10301 -0.07781,0.14782 -0.179417,0.1584 l 0.197272,0.25329 h -0.117768 l -0.183237,-0.24941 h -0.120744 z m 0.127122,0.12806 c 0.272525,0 0.486805,-0.17674 0.486805,-0.41698 0,-0.23636 -0.21428,-0.41416 -0.486805,-0.41416 -0.274651,0 -0.48978,0.1778 -0.48978,0.41416 0,0.24024 0.215129,0.41698 0.48978,0.41698 m -0.610524,-0.41698 c 0,-0.28646 0.279752,-0.49742 0.610524,-0.49742 0.327795,0 0.607549,0.21096 0.607549,0.49742 0,0.28892 -0.279754,0.49989 -0.607549,0.49989 -0.330772,0 -0.610524,-0.21097 -0.610524,-0.49989"
         style="fill:#0078c9;fill-opacity:1;fill-rule:nonzero;stroke:none;stroke-width:0.387281"
         id="path56052" />
      <path
         d="M 34.410943,191.18809 34.155,191.43468 c -0.02126,0.0208 -0.03359,0.0473 -0.03359,0.0751 v 3.53519 c 0,0.0272 0.01232,0.0543 0.03359,0.0751 l 0.25807,0.24518 c 0.02508,0.024 0.06164,0.0381 0.09907,0.037 0.03784,0 0.07313,-0.0134 0.09865,-0.0377 l 0.255518,-0.24624 c 0.02126,-0.0205 0.03273,-0.0469 0.03273,-0.0748 l -0.0017,-3.53342 c 0,-0.0275 -0.01145,-0.0543 -0.03316,-0.0744 l -0.254669,-0.24694 c -0.02466,-0.0247 -0.06036,-0.0388 -0.09907,-0.0388 -0.03869,0 -0.07398,0.0141 -0.09949,0.0381"
         style="fill:#0078c9;fill-opacity:1;fill-rule:nonzero;stroke:none;stroke-width:0.387281"
         id="path56056" />
      <path
         d="m 33.457914,191.84185 c -0.02636,0 -0.05102,0.01 -0.0676,0.0268 l -0.256369,0.25682 c -0.0136,0.0134 -0.02167,0.0314 -0.02167,0.0494 v 2.88784 c 0,0.0187 0.008,0.036 0.02167,0.0497 l 0.265298,0.26459 c 0.01742,0.0176 0.04294,0.0268 0.07016,0.0268 0.02677,-3.6e-4 0.05101,-0.0109 0.06888,-0.0286 l 0.247866,-0.25858 c 0.01275,-0.0145 0.02041,-0.0314 0.02041,-0.049 v -2.89772 c 0,-0.019 -0.0089,-0.0363 -0.02296,-0.0504 l -0.257645,-0.25119 c -0.01659,-0.0169 -0.04166,-0.0268 -0.06802,-0.0265"
         style="fill:#0078c9;fill-opacity:1;fill-rule:nonzero;stroke:none;stroke-width:0.387281"
         id="path56060" />
      <path
         d="m 32.455396,192.64104 c -0.02381,0 -0.04677,0.007 -0.06164,0.0212 l -0.256368,0.22013 c -0.01275,0.0106 -0.01956,0.024 -0.01956,0.0384 v 1.40512 c 0,0.0148 0.0077,0.0293 0.02126,0.0399 l 0.265298,0.21484 c 0.01615,0.0123 0.03869,0.0198 0.0625,0.0191 0.02423,0 0.04677,-0.008 0.06208,-0.0212 l 0.248716,-0.2159 c 0.01109,-0.0109 0.0187,-0.025 0.0187,-0.0385 v -1.40829 c 0,-0.0141 -0.0076,-0.0279 -0.02041,-0.0384 l -0.257644,-0.21555 c -0.01531,-0.0137 -0.03826,-0.0208 -0.06292,-0.0208"
         style="fill:#0078c9;fill-opacity:1;fill-rule:nonzero;stroke:none;stroke-width:0.387281"
         id="path56064" />
      <path
         d="m 36.788417,191.15023 c -0.03784,0 -0.07398,0.0138 -0.09864,0.0384 l -0.254669,0.24695 c -0.02169,0.0201 -0.03273,0.0469 -0.03273,0.0744 l -0.0022,3.53378 c 0,0.0275 0.01145,0.0543 0.03273,0.0744 l 0.255519,0.2466 c 0.02466,0.0243 0.06081,0.0377 0.09864,0.0377 0.03784,3.6e-4 0.07355,-0.0134 0.09907,-0.0374 l 0.258069,-0.24483 c 0.02169,-0.0212 0.03359,-0.048 0.03359,-0.0751 v -3.53519 c 0,-0.0282 -0.01193,-0.0543 -0.03359,-0.0755 l -0.256368,-0.24624 c -0.02508,-0.0243 -0.06081,-0.0381 -0.09949,-0.0381"
         style="fill:#0078c9;fill-opacity:1;fill-rule:nonzero;stroke:none;stroke-width:0.387281"
         id="path56068" />
      <path
         d="m 37.773036,191.86831 -0.257219,0.25118 c -0.01445,0.0141 -0.0221,0.0318 -0.0221,0.0504 v 2.89772 c 0,0.018 0.0067,0.0349 0.01956,0.049 l 0.247866,0.25858 c 0.01786,0.0176 0.04252,0.0286 0.0693,0.0286 0.02678,3.5e-4 0.05229,-0.01 0.0693,-0.0268 l 0.265722,-0.26494 c 0.0136,-0.0134 0.02169,-0.0307 0.02169,-0.0494 v -2.88784 c 0,-0.018 -0.008,-0.036 -0.02169,-0.0494 l -0.255519,-0.25682 c -0.01701,-0.0169 -0.04252,-0.0268 -0.06802,-0.0268 -0.02721,-3.5e-4 -0.05144,0.009 -0.06888,0.0265"
         style="fill:#0078c9;fill-opacity:1;fill-rule:nonzero;stroke:none;stroke-width:0.387281"
         id="path56072" />
      <path
         d="m 38.779126,192.66167 -0.257221,0.2159 c -0.01275,0.0102 -0.02041,0.024 -0.02041,0.0385 v 1.40794 c 0,0.0134 0.0073,0.0275 0.01956,0.0384 l 0.247441,0.2159 c 0.01616,0.0134 0.03826,0.0212 0.0625,0.0212 0.0238,7e-4 0.04676,-0.007 0.0625,-0.0191 l 0.266148,-0.21449 c 0.0136,-0.0109 0.02084,-0.0254 0.02084,-0.0395 v -1.40582 c 0,-0.0141 -0.0067,-0.0275 -0.01956,-0.0384 l -0.256368,-0.22014 c -0.01445,-0.0134 -0.03784,-0.0212 -0.06164,-0.0212 -0.02508,0 -0.04761,0.007 -0.06378,0.0208"
         style="fill:#0078c9;fill-opacity:1;fill-rule:nonzero;stroke:none;stroke-width:0.387281"
         id="path56084" />
      <path
         d="m 37.066597,197.40428 c 1.202342,0.0776 2.591751,-0.47378 3.219282,-1.00365 1.031854,-0.87207 1.495699,-1.9237 1.495699,-3.28436 0,-2.61797 -2.197632,-4.33776 -5.607384,-4.33776 -2.287766,0 -4.305983,0.80892 -5.711974,2.25919 -0.971481,1.00083 -1.494849,2.21968 -1.494849,3.52954 0,1.65523 0.822253,2.99403 2.287341,3.9303 1.0918,0.69391 2.677633,1.16734 4.56065,1.11725 1.240606,-0.0332 2.485888,-0.30657 3.141904,-0.72285 0.539524,-0.3429 0.291657,-0.33619 0.119047,-0.31503 -0.120325,0.0152 -0.280604,0.072 -0.280604,0.072 -0.957027,0.35525 -1.925957,0.56832 -2.970992,0.56832 -3.439087,0 -5.676685,-1.71132 -5.676685,-4.52155 0,-1.91241 0.942147,-3.52919 2.632143,-4.54307 1.031853,-0.62971 2.257578,-0.93733 3.573437,-0.93733 2.915722,0 4.974328,1.55293 4.949667,3.86256 -0.01615,1.42558 -0.324818,2.21792 -1.237204,3.07658 -0.845635,0.79657 -2.132157,0.99518 -2.912744,0.9338 -0.960428,-0.0751 -1.066292,-0.5521 -1.069267,-0.94685 v -0.0466 l -4.26e-4,-5.14033 c 0,-0.0448 -0.01488,-0.0885 -0.04166,-0.12558 l -0.210452,-0.28611 c -0.04208,-0.0586 -0.111816,-0.0931 -0.185794,-0.0924 -0.07398,3.6e-4 -0.143278,0.0356 -0.184944,0.0942 l -0.20535,0.28645 c -0.02636,0.036 -0.04039,0.0794 -0.04039,0.12347 l -4.25e-4,5.10646 v 0.0741 c 0,0.002 4.25e-4,0.005 0.0013,0.008 -8.5e-4,10e-4 -0.0025,0.002 -0.0025,0.004 0,0.63288 0.796741,1.18851 1.853255,1.25765"
         style="fill:#0078c9;fill-opacity:1;fill-rule:nonzero;stroke:none;stroke-width:0.387281"
         id="path56088" />
    </g>
  </g>
</svg>
