<?xml version="1.0" encoding="UTF-8" standalone="no"?>
<!-- Created with Inkscape (http://www.inkscape.org/) -->

<svg
   xmlns:dc="http://purl.org/dc/elements/1.1/"
   xmlns:cc="http://creativecommons.org/ns#"
   xmlns:rdf="http://www.w3.org/1999/02/22-rdf-syntax-ns#"
   xmlns:svg="http://www.w3.org/2000/svg"
   xmlns="http://www.w3.org/2000/svg"
   xmlns:sodipodi="http://sodipodi.sourceforge.net/DTD/sodipodi-0.dtd"
   xmlns:inkscape="http://www.inkscape.org/namespaces/inkscape"
   width="209.35294"
   height="41.96973"
   viewBox="0 0 55.391296 11.104491"
   version="1.1"
   id="svg56462"
   inkscape:version="0.92.4 (5da689c313, 2019-01-14)"
   sodipodi:docname="aspentech.svg">
  <defs
     id="defs56456" />
  <sodipodi:namedview
     id="base"
     pagecolor="#ffffff"
     bordercolor="#666666"
     borderopacity="1.0"
     inkscape:pageopacity="0.0"
     inkscape:pageshadow="2"
     inkscape:zoom="6.8585547"
     inkscape:cx="104.17647"
     inkscape:cy="20.484866"
     inkscape:document-units="mm"
     inkscape:current-layer="layer1"
     showgrid="false"
     fit-margin-top="0"
     fit-margin-left="0"
     fit-margin-right="0"
     fit-margin-bottom="0"
     units="px"
     inkscape:window-width="1920"
     inkscape:window-height="1001"
     inkscape:window-x="-9"
     inkscape:window-y="-9"
     inkscape:window-maximized="1" />
  <metadata
     id="metadata56459">
    <rdf:RDF>
      <cc:Work
         rdf:about="">
        <dc:format>image/svg+xml</dc:format>
        <dc:type
           rdf:resource="http://purl.org/dc/dcmitype/StillImage" />
        <dc:title></dc:title>
      </cc:Work>
    </rdf:RDF>
  </metadata>
  <g
     inkscape:label="Layer 1"
     inkscape:groupmode="layer"
     id="layer1"
     transform="translate(215.7955,-231.59523)">
    <g
       transform="translate(-239.02947,42.898122)"
       id="g56400">
      <path
         d="m 32.989722,198.44337 c 0.07373,0 0.140053,-0.005 0.140053,-0.0938 0,-0.0713 -0.06491,-0.0843 -0.125589,-0.0843 H 32.8853 v 0.17815 z m -0.104422,0.32314 h -0.08714 v -0.57538 h 0.219075 c 0.136172,0 0.2032,0.0501 0.2032,0.16369 0,0.10301 -0.06456,0.14782 -0.148873,0.1584 l 0.163689,0.25329 h -0.09772 L 32.985489,198.5171 H 32.8853 Z m 0.10548,0.12806 c 0.226131,0 0.403931,-0.17674 0.403931,-0.41698 0,-0.23636 -0.1778,-0.41416 -0.403931,-0.41416 -0.227894,0 -0.4064,0.1778 -0.4064,0.41416 0,0.24024 0.178506,0.41698 0.4064,0.41698 m -0.506589,-0.41698 c 0,-0.28646 0.232128,-0.49742 0.506589,-0.49742 0.271992,0 0.50412,0.21096 0.50412,0.49742 0,0.28892 -0.232128,0.49989 -0.50412,0.49989 -0.274461,0 -0.506589,-0.21097 -0.506589,-0.49989"
         style="fill:#0078c9;fill-opacity:1;fill-rule:nonzero;stroke:none;stroke-width:0.35277778"
         id="path56052"
         inkscape:connector-curvature="0" />
      <path
         d="m 27.883122,191.23898 -0.212372,0.24659 c -0.01764,0.0208 -0.02787,0.0473 -0.02787,0.0751 v 3.53519 c 0,0.0272 0.01023,0.0543 0.02787,0.0751 l 0.214136,0.24518 c 0.02081,0.024 0.05115,0.0381 0.0822,0.037 0.0314,0 0.06068,-0.0134 0.08185,-0.0377 l 0.212019,-0.24624 c 0.01764,-0.0205 0.02716,-0.0469 0.02716,-0.0748 l -0.0014,-3.53342 c 0,-0.0275 -0.0095,-0.0543 -0.02752,-0.0744 l -0.211314,-0.24694 c -0.02046,-0.0247 -0.05009,-0.0388 -0.0822,-0.0388 -0.0321,0 -0.06138,0.0141 -0.08255,0.0381"
         style="fill:#0078c9;fill-opacity:1;fill-rule:nonzero;stroke:none;stroke-width:0.35277778"
         id="path56056"
         inkscape:connector-curvature="0" />
      <path
         d="m 27.092336,191.89274 c -0.02187,0 -0.04233,0.01 -0.05609,0.0268 l -0.212725,0.25682 c -0.01129,0.0134 -0.01799,0.0314 -0.01799,0.0494 v 2.88784 c 0,0.0187 0.0067,0.036 0.01799,0.0497 l 0.220134,0.26459 c 0.01446,0.0176 0.03563,0.0268 0.05821,0.0268 0.02222,-3.6e-4 0.04233,-0.0109 0.05715,-0.0286 l 0.205669,-0.25858 c 0.01058,-0.0145 0.01693,-0.0314 0.01693,-0.049 v -2.89772 c 0,-0.019 -0.0074,-0.0363 -0.01905,-0.0504 L 27.14878,191.9192 c -0.01376,-0.0169 -0.03457,-0.0268 -0.05644,-0.0265"
         style="fill:#0078c9;fill-opacity:1;fill-rule:nonzero;stroke:none;stroke-width:0.35277778"
         id="path56060"
         inkscape:connector-curvature="0" />
      <path
         d="m 26.260486,192.69193 c -0.01976,0 -0.03881,0.007 -0.05115,0.0212 l -0.212725,0.22013 c -0.01058,0.0106 -0.01623,0.024 -0.01623,0.0384 v 1.40512 c 0,0.0148 0.0064,0.0293 0.01764,0.0399 l 0.220134,0.21484 c 0.0134,0.0123 0.0321,0.0198 0.05186,0.0191 0.02011,0 0.03881,-0.008 0.05151,-0.0212 l 0.206375,-0.2159 c 0.0092,-0.0109 0.01552,-0.025 0.01552,-0.0385 v -1.40829 c 0,-0.0141 -0.0063,-0.0279 -0.01693,-0.0384 l -0.213783,-0.21555 c -0.0127,-0.0137 -0.03175,-0.0208 -0.05221,-0.0208"
         style="fill:#0078c9;fill-opacity:1;fill-rule:nonzero;stroke:none;stroke-width:0.35277778"
         id="path56064"
         inkscape:connector-curvature="0" />
      <path
         d="m 29.855856,191.20112 c -0.0314,0 -0.06138,0.0138 -0.08184,0.0384 l -0.211314,0.24695 c -0.01799,0.0201 -0.02716,0.0469 -0.02716,0.0744 l -0.0018,3.53378 c 0,0.0275 0.0095,0.0543 0.02716,0.0744 l 0.212019,0.2466 c 0.02046,0.0243 0.05045,0.0377 0.08184,0.0377 0.0314,3.6e-4 0.06103,-0.0134 0.0822,-0.0374 l 0.214136,-0.24483 c 0.01799,-0.0212 0.02787,-0.048 0.02787,-0.0751 v -3.53519 c 0,-0.0282 -0.0099,-0.0543 -0.02787,-0.0755 l -0.212725,-0.24624 c -0.02081,-0.0243 -0.05045,-0.0381 -0.08255,-0.0381"
         style="fill:#0078c9;fill-opacity:1;fill-rule:nonzero;stroke:none;stroke-width:0.35277778"
         id="path56068"
         inkscape:connector-curvature="0" />
      <path
         d="m 30.672854,191.9192 -0.213431,0.25118 c -0.01199,0.0141 -0.01834,0.0318 -0.01834,0.0504 v 2.89772 c 0,0.018 0.0056,0.0349 0.01623,0.049 l 0.205669,0.25858 c 0.01482,0.0176 0.03528,0.0286 0.0575,0.0286 0.02222,3.5e-4 0.04339,-0.01 0.0575,-0.0268 l 0.220486,-0.26494 c 0.01129,-0.0134 0.01799,-0.0307 0.01799,-0.0494 v -2.88784 c 0,-0.018 -0.0067,-0.036 -0.01799,-0.0494 l -0.21202,-0.25682 c -0.01411,-0.0169 -0.03528,-0.0268 -0.05644,-0.0268 -0.02258,-3.5e-4 -0.04269,0.009 -0.05715,0.0265"
         style="fill:#0078c9;fill-opacity:1;fill-rule:nonzero;stroke:none;stroke-width:0.35277778"
         id="path56072"
         inkscape:connector-curvature="0" />
      <path
         d="m 31.507667,192.71256 -0.213431,0.2159 c -0.01058,0.0102 -0.01693,0.024 -0.01693,0.0385 v 1.40794 c 0,0.0134 0.006,0.0275 0.01623,0.0384 l 0.205317,0.2159 c 0.01341,0.0134 0.03175,0.0212 0.05186,0.0212 0.01975,7e-4 0.0388,-0.007 0.05186,-0.0191 l 0.220839,-0.21449 c 0.01129,-0.0109 0.01729,-0.0254 0.01729,-0.0395 v -1.40582 c 0,-0.0141 -0.0056,-0.0275 -0.01623,-0.0384 l -0.212725,-0.22014 c -0.01199,-0.0134 -0.0314,-0.0212 -0.05115,-0.0212 -0.02081,0 -0.03951,0.007 -0.05292,0.0208"
         style="fill:#0078c9;fill-opacity:1;fill-rule:nonzero;stroke:none;stroke-width:0.35277778"
         id="path56084"
         inkscape:connector-curvature="0" />
      <path
         d="m 30.086678,197.45517 c 0.997656,0.0776 2.150533,-0.47378 2.671233,-1.00365 0.856192,-0.87207 1.241072,-1.9237 1.241072,-3.28436 0,-2.61797 -1.823508,-4.33776 -4.652786,-4.33776 -1.898297,0 -3.572933,0.80892 -4.739569,2.25919 -0.806097,1.00083 -1.240367,2.21968 -1.240367,3.52954 0,1.65523 0.682273,2.99403 1.897945,3.9303 0.905933,0.69391 2.221794,1.16734 3.784247,1.11725 1.029406,-0.0332 2.062692,-0.30657 2.607028,-0.72285 0.447675,-0.3429 0.242005,-0.33619 0.09878,-0.31503 -0.09984,0.0152 -0.232834,0.072 -0.232834,0.072 -0.794103,0.35525 -1.598083,0.56832 -2.465211,0.56832 -2.853619,0 -4.710289,-1.71132 -4.710289,-4.52155 0,-1.91241 0.781756,-3.52919 2.184048,-4.54307 0.856191,-0.62971 1.873249,-0.93733 2.965097,-0.93733 2.41935,0 4.1275,1.55293 4.107038,3.86256 -0.0134,1.42558 -0.269522,2.21792 -1.026583,3.07658 -0.701675,0.79657 -1.76918,0.99518 -2.41688,0.9338 -0.796925,-0.0751 -0.884767,-0.5521 -0.887236,-0.94685 v -0.0466 l -3.53e-4,-5.14033 c 0,-0.0448 -0.01235,-0.0885 -0.03457,-0.12558 l -0.174625,-0.28611 c -0.03492,-0.0586 -0.09278,-0.0931 -0.154164,-0.0924 -0.06138,3.6e-4 -0.118886,0.0356 -0.153459,0.0942 l -0.170391,0.28645 c -0.02187,0.036 -0.03351,0.0794 -0.03351,0.12347 l -3.53e-4,5.10646 v 0.0741 c 0,0.002 3.53e-4,0.005 0.0011,0.008 -7.05e-4,0.001 -0.0021,0.002 -0.0021,0.004 0,0.63288 0.661105,1.18851 1.537758,1.25765"
         style="fill:#0078c9;fill-opacity:1;fill-rule:nonzero;stroke:none;stroke-width:0.35277778"
         id="path56088"
         inkscape:connector-curvature="0" />
      <path
         d="m 39.990455,197.24996 v -3.72286 c 0,-1.30458 -0.697442,-1.8221 -2.103614,-1.8221 -0.866069,0 -1.529291,0.1912 -2.159,0.4385 l 0.168275,1.07985 c 0.584906,-0.25858 1.1811,-0.4385 1.811161,-0.4385 0.595842,0 0.93345,0.22472 0.93345,0.80963 v 0.15734 c -2.193219,0.21378 -3.273072,0.7874 -3.273072,2.10361 0,0.94474 0.618772,1.50707 1.540933,1.50707 0.809978,0 1.372306,-0.35984 1.810809,-0.82127 l 0.112536,0.70873 z m -1.349728,-1.49613 c -0.371122,0.37147 -0.809978,0.58526 -1.271058,0.58526 -0.416278,0 -0.663575,-0.23636 -0.663575,-0.63006 0,-0.51753 0.371122,-0.97861 1.934633,-1.16981 z m 6.215239,-0.10089 c 0,-1.02377 -0.551039,-1.40582 -1.957211,-1.76601 -0.809978,-0.21378 -1.012119,-0.37112 -1.012119,-0.66358 0,-0.30374 0.24765,-0.49494 0.753533,-0.49494 0.53975,0 1.180747,0.1912 1.721203,0.49494 l 0.179563,-1.12465 c -0.53975,-0.24765 -1.192388,-0.38241 -1.900766,-0.38241 -1.25977,0 -2.002014,0.66357 -2.002014,1.59702 0,0.9899 0.551039,1.37231 1.8669,1.70956 0.866069,0.21379 1.10243,0.37148 1.10243,0.75354 0,0.34889 -0.31503,0.56268 -0.899936,0.56268 -0.674863,0 -1.39453,-0.25894 -1.979436,-0.64135 l -0.179916,1.12465 c 0.517525,0.28117 1.32715,0.52846 2.11455,0.52846 1.428397,0 2.193219,-0.62935 2.193219,-1.69791 m 5.539317,-1.27106 c 0,-1.8221 -0.910873,-2.67688 -2.04717,-2.67688 -0.753533,0 -1.281994,0.41592 -1.664758,0.85478 l -0.123825,-0.74224 h -1.147233 v 7.52474 l 1.349727,-0.20249 v -2.04752 c 0.32632,0.12382 0.742598,0.21378 1.25977,0.21378 1.248833,0 2.373489,-0.89958 2.373489,-2.92417 m -1.361017,0.079 c 0,1.19204 -0.528814,1.7653 -1.225903,1.7653 -0.461433,0 -0.720019,-0.0787 -1.046339,-0.23601 v -2.32833 c 0.360186,-0.46108 0.742598,-0.76482 1.226256,-0.76482 0.607483,0 1.045986,0.51752 1.045986,1.56386 m 6.535561,0.0109 c 0,-1.54094 -0.730956,-2.76684 -2.3622,-2.76684 -1.416756,0 -2.474383,1.06856 -2.474383,2.83422 0,1.95721 1.135944,2.82328 2.654652,2.82328 0.877359,0 1.585736,-0.25894 2.170642,-0.66358 l -0.157339,-1.05727 c -0.595842,0.41627 -1.169811,0.67486 -1.8669,0.67486 -0.832555,0 -1.394883,-0.46108 -1.462264,-1.51836 h 3.486503 c 0,-0.0787 0.01129,-0.21378 0.01129,-0.32631 m -1.315861,-0.51753 h -2.159353 c 0.101247,-0.88865 0.53975,-1.31586 1.0795,-1.31586 0.652286,0 0.989894,0.47272 1.079853,1.31586 m 6.593064,3.29565 v -3.91442 c 0,-1.01177 -0.53975,-1.63054 -1.552223,-1.63054 -0.730602,0 -1.304572,0.3937 -1.810455,0.87736 l -0.123825,-0.76482 h -1.147233 v 5.43242 h 1.349375 v -3.66642 c 0.393699,-0.41628 0.809977,-0.6865 1.237544,-0.6865 0.494594,0 0.697089,0.32631 0.697089,0.79868 v 3.55424 z m 3.28683,0 -0.112536,-0.61877 c -0.123825,0.0226 -0.32632,0.0564 -0.494947,0.0564 -0.573617,0 -0.7874,-0.23636 -0.7874,-0.77611 v -3.35174 h 1.32715 l -0.100895,-0.63006 h -1.226255 v -1.96815 l -0.730956,0.12383 v 1.84432 h -0.821266 v 0.63006 h 0.821266 v 3.47557 c 0,0.9786 0.551039,1.30422 1.383242,1.30422 0.314678,0 0.584905,-0.0448 0.742597,-0.0896 m 4.640439,-2.76684 c 0,-1.47355 -0.697442,-2.66558 -2.148064,-2.66558 -1.304925,0 -2.294819,1.05692 -2.294819,2.76683 0,1.83303 1.001183,2.77813 2.395713,2.77813 0.821267,0 1.50742,-0.30375 2.035881,-0.75354 l -0.112536,-0.67486 c -0.550686,0.47237 -1.169458,0.7874 -1.878189,0.7874 -1.068564,0 -1.676047,-0.77646 -1.698272,-2.08104 H 68.7743 Z m -0.764822,-0.42756 h -2.90195 c 0.14605,-1.02341 0.686152,-1.64218 1.518708,-1.64218 0.854781,0 1.304572,0.68615 1.383242,1.64218 m 5.519913,2.69945 -0.100894,-0.67486 c -0.551392,0.47237 -1.057275,0.63006 -1.619603,0.63006 -1.079853,0 -1.732139,-0.80998 -1.732139,-2.12584 0,-1.30492 0.652286,-2.12584 1.664406,-2.12584 0.607483,0 1.113719,0.21343 1.619955,0.641 l 0.123473,-0.74224 c -0.438503,-0.31468 -1.01212,-0.53975 -1.732139,-0.53975 -1.349728,0 -2.429581,0.98954 -2.429581,2.77777 0,1.75471 1.046339,2.76719 2.407003,2.76719 0.709083,0 1.282347,-0.2025 1.799519,-0.60749 m 4.963584,0.49495 v -3.81282 c 0,-1.01247 -0.528462,-1.6196 -1.585736,-1.6196 -0.72002,0 -1.316214,0.38205 -1.867253,0.86606 v -3.50943 l -0.742597,0.13476 v 7.94103 h 0.742597 v -3.84669 c 0.584905,-0.57362 1.158522,-0.92216 1.721203,-0.92216 0.674863,0 0.989541,0.41593 0.989541,1.10243 v 3.66642 z"
         style="fill:#0078c9;fill-opacity:1;fill-rule:nonzero;stroke:none;stroke-width:0.35277778"
         id="path56100"
         inkscape:connector-curvature="0" />
    </g>
  </g>
</svg>
