<?xml version="1.0" encoding="UTF-8"?>
<svg version="1.1" xmlns="http://www.w3.org/2000/svg" width="280" height="279">
<path d="M0 0 C2.34993577 0.00850282 4.69742139 -0.02037848 7.04711914 -0.05200195 C42.12255675 -0.21199365 72.16364047 15.71177596 97.04907227 39.44604492 C98.33104492 40.63133789 98.33104492 40.63133789 99.63891602 41.84057617 C124.71178457 65.72515712 138.59873294 100.25241076 139.44946289 134.56518555 C139.8485298 173.61073241 125.9948813 207.47645895 99.04907227 235.44604492 C98.40711914 236.15116211 97.76516602 236.8562793 97.10375977 237.58276367 C74.10350561 262.12632492 39.30110356 274.03284907 6.40405273 275.37402344 C-31.2375247 276.33410171 -65.93578603 262.02607197 -93.14233398 236.18432617 C-118.77706404 211.1913557 -133.35589089 176.47128879 -134.29443359 140.74780273 C-134.710086 103.77084899 -120.6378181 69.13987258 -95.07592773 42.60620117 C-94.03737098 41.54974949 -92.99569825 40.49635194 -91.95092773 39.44604492 C-91.4365918 38.92768066 -90.92225586 38.40931641 -90.39233398 37.87524414 C-82.33201974 29.85764354 -73.68405351 23.30749937 -63.95092773 17.44604492 C-63.34522949 17.07995117 -62.73953125 16.71385742 -62.11547852 16.33666992 C-55.01176434 12.12140497 -47.77365252 8.79238059 -39.95092773 6.13354492 C-39.27634521 5.903125 -38.6017627 5.67270508 -37.90673828 5.43530273 C-25.33407311 1.41700637 -13.1145927 -0.07193143 0 0 Z M-67.95092773 66.44604492 C-68.77463867 67.18725586 -69.59834961 67.9284668 -70.44702148 68.69213867 C-89.12533668 86.33456811 -98.30401088 111.1578725 -99.28491211 136.4609375 C-99.76079902 160.94361938 -91.06545561 184.0858013 -74.95092773 202.44604492 C-74.29737305 203.19499023 -73.64381836 203.94393555 -72.97045898 204.71557617 C-53.91558385 225.12896023 -25.82519364 234.0618109 1.36547852 235.57495117 C29.79688018 236.29656035 58.1874444 226.11489566 78.92407227 206.59667969 C94.98419692 190.94619673 105.83459816 169.57277905 106.23657227 146.82104492 C106.43435876 143.60906646 106.43435876 143.60906646 105.04907227 142.44604492 C103.52053736 142.34806104 101.98748262 142.31972662 100.45581055 142.31906128 C99.46301086 142.31624146 98.47021118 142.31342163 97.44732666 142.31051636 C96.34910583 142.31254059 95.25088501 142.31456482 94.11938477 142.31665039 C92.39519318 142.31402191 92.39519318 142.31402191 90.63616943 142.31134033 C86.81545527 142.30691902 82.99478695 142.30986079 79.17407227 142.31323242 C76.53230785 142.31255946 73.8905435 142.31158951 71.2487793 142.31033325 C65.70368956 142.30851171 60.15861311 142.31091745 54.61352539 142.31567383 C48.19412482 142.32111642 41.77475601 142.31935375 35.35535622 142.31384742 C29.19106244 142.30877066 23.02678279 142.30929781 16.86248779 142.31222916 C14.23411047 142.3128987 11.60573234 142.31206904 8.97735596 142.3097496 C5.31113503 142.30722473 1.64497605 142.31106135 -2.02124023 142.31665039 C-3.11946106 142.31462616 -4.21768188 142.31260193 -5.34918213 142.31051636 C-6.83838165 142.31474609 -6.83838165 142.31474609 -8.35766602 142.31906128 C-9.22561798 142.3194383 -10.09356995 142.31981533 -10.98782349 142.32020378 C-12.9543183 142.22929432 -12.9543183 142.22929432 -13.95092773 143.44604492 C-13.95092773 149.38604492 -13.95092773 155.32604492 -13.95092773 161.44604492 C12.44907227 161.44604492 38.84907227 161.44604492 66.04907227 161.44604492 C66.37907227 163.09604492 66.70907227 164.74604492 67.04907227 166.44604492 C67.70907227 166.44604492 68.36907227 166.44604492 69.04907227 166.44604492 C70.68966207 172.25120884 69.64203791 175.59356046 66.75610352 180.83276367 C56.47070144 196.57860804 39.66360914 207.58694737 21.47875977 211.97338867 C20.67696289 212.12936523 19.87516602 212.2853418 19.04907227 212.44604492 C17.65881836 212.71868164 17.65881836 212.71868164 16.24047852 212.99682617 C-3.77005402 215.8134862 -24.05674436 211.23729208 -40.70092773 199.75854492 C-58.43104731 185.92691549 -70.39794986 168.31844288 -73.45874023 145.69213867 C-75.43960829 126.4629927 -69.83764397 106.09716673 -57.70678711 90.88598633 C-41.84157169 72.13460251 -24.26934338 61.39282261 0.55688477 59.22729492 C19.60408892 58.4729502 37.59457252 66.73811471 51.54907227 79.19604492 C55.88658619 83.22373642 55.88658619 83.22373642 57.22412109 85.05371094 C60.03016154 87.19456025 62.96005928 86.81551896 66.34204102 86.73901367 C67.04806961 86.73476883 67.75409821 86.73052399 68.48152161 86.72615051 C70.7335953 86.70937526 72.98476969 86.67172735 75.23657227 86.63354492 C76.76455412 86.61849649 78.29255002 86.60480836 79.82055664 86.5925293 C83.56374099 86.55947581 87.30625422 86.50770324 91.04907227 86.44604492 C86.63534477 78.61265436 86.63534477 78.61265436 80.67407227 71.94604492 C79.43418748 70.81296669 78.21584463 69.6542762 77.04907227 68.44604492 C77.04907227 67.78604492 77.04907227 67.12604492 77.04907227 66.44604492 C75.4029836 65.41252188 73.73196602 64.41848844 72.04907227 63.44604492 C70.50976443 62.2188671 68.98948028 60.9675407 67.48657227 59.69604492 C27.11687767 27.31741891 -30.86051399 32.38033362 -67.95092773 66.44604492 Z " fill="#26AE00" transform="translate(135.950927734375,-0.446044921875)"/>
<path d="M0 0 C0 3.96856987 -1.49449357 5.74241642 -3.5625 9.125 C-15.44077575 29.32549933 -20.22974484 50.59771659 -20.25 73.9375 C-20.25067474 74.63352325 -20.25134949 75.32954651 -20.25204468 76.04666138 C-20.23617536 86.33813674 -19.78707486 96.0092357 -17 106 C-16.83371094 106.63824707 -16.66742188 107.27649414 -16.49609375 107.93408203 C-13.67712998 118.66441541 -9.28786668 128.27664691 -4 138 C-3.42121094 139.08410156 -2.84242187 140.16820312 -2.24609375 141.28515625 C7.45645963 158.73174295 22.12453965 173.46869768 39 184 C39.90492187 184.60070312 40.80984375 185.20140625 41.7421875 185.8203125 C54.2166638 193.70078903 69.5082987 199.29298276 84 202 C85.0209375 202.20238281 86.041875 202.40476562 87.09375 202.61328125 C121.43008986 208.50982559 155.58717836 199.53517654 184.01171875 179.921875 C192.34009471 173.96816558 199.45928381 167.87987145 206 160 C206.9590625 158.87271484 206.9590625 158.87271484 207.9375 157.72265625 C220.59912476 142.46440922 230.84078352 123.47269532 235 104 C235.14663086 103.31566895 235.29326172 102.63133789 235.44433594 101.92626953 C242.47514061 67.80796685 236.13134019 35.67315179 218.80688477 5.75146484 C218 4 218 4 218 1 C240.47711081 27.34137055 246.8301363 63.4771454 245 97 C242.03928589 129.03182065 227.0229588 157.14030265 205 180 C204.35804688 180.70511719 203.71609375 181.41023437 203.0546875 182.13671875 C180.05443335 206.68028 145.2520313 218.58680415 112.35498047 219.92797852 C74.71340304 220.88805679 40.01514171 206.58002705 12.80859375 180.73828125 C-12.82613631 155.74531077 -27.40496316 121.02524387 -28.34350586 85.30175781 C-28.69083424 54.40299421 -19.05632965 24.37791107 0 0 Z " fill="#000100" transform="translate(30,55)"/>
<path d="M0 0 C0 0.66 0 1.32 0 2 C0.886875 2.28875 1.77375 2.5775 2.6875 2.875 C3.780625 3.24625 4.87375 3.6175 6 4 C6.86625 4.28875 7.7325 4.5775 8.625 4.875 C11.37103792 6.1757548 12.86042049 7.86042049 15 10 C15.94875 10.474375 16.8975 10.94875 17.875 11.4375 C20.44023464 12.72011732 22.07056386 13.7917228 24.1875 15.625 C26.82064001 18.14602711 26.82064001 18.14602711 30 19 C30.6875 21.0625 30.6875 21.0625 31 23 C31.66 23 32.32 23 33 23 C33.56589844 24.01320312 34.13179687 25.02640625 34.71484375 26.0703125 C36.49140923 29.18223565 38.40445896 32.16410689 40.40063477 35.13818359 C44.28123958 40.93911292 47.23387884 46.17099819 49 53 C45.10827385 53.78561948 41.86896019 53.98473535 38 53 C34.3070389 49.44995535 31.72579556 45.30045833 29 41 C15.8265368 22.45411884 -8.19713408 11.80502112 -29.75 7.0625 C-56.91533289 2.67572107 -85.15904517 7.19208737 -108 23 C-112.55960145 26.41554204 -116.79689255 30.15942473 -121 34 C-121.75023437 34.66773438 -122.50046875 35.33546875 -123.2734375 36.0234375 C-141.62021068 53.20994044 -150.37888476 78.37739916 -151.33398438 103.01489258 C-151.70436556 122.06968166 -146.47161698 140.44813163 -136.35546875 156.5390625 C-135 159 -135 159 -135 162 C-154.03612757 137.38566291 -161.39364314 109.47936945 -157.68359375 78.34472656 C-156.84821673 73.42776233 -155.53046117 68.74291432 -154 64 C-153.66097656 62.90300781 -153.32195312 61.80601563 -152.97265625 60.67578125 C-148.09129751 46.55284654 -140.11277935 34.33293963 -129.6875 23.73828125 C-127.56726644 21.57798514 -125.6391125 19.41875716 -123.75 17.0625 C-120.01904174 12.64918359 -115.60059522 8.75850694 -110 7.125 C-109.34 7.08375 -108.68 7.0425 -108 7 C-107.505 5.515 -107.505 5.515 -107 4 C-104.68895182 2.94952356 -102.35416349 1.94992562 -100 1 C-99.34 0.34 -98.68 -0.32 -98 -1 C-95.375 -1.125 -95.375 -1.125 -93 -1 C-93 -1.66 -93 -2.32 -93 -3 C-62.83146641 -14.91022268 -29.15060689 -14.57530345 0 0 Z " fill="#000400" transform="translate(189,33)"/>
<path d="M0 0 C0.44214844 0.63035156 0.88429687 1.26070312 1.33984375 1.91015625 C2.91663825 4.16579824 2.91663825 4.16579824 5.5625 5.4375 C9.4790877 7.94813314 10.03272261 11.64725177 11 16 C11.99 15.67 12.98 15.34 14 15 C13.125 22.875 13.125 22.875 12 24 C11.8453125 25.7015625 11.8453125 25.7015625 11.6875 27.4375 C11.20144529 31.77341665 9.75563084 35.33258895 8.0546875 39.32421875 C6.30300382 43.76830512 5.16127438 48.37249755 4 53 C4.4125 51.865625 4.825 50.73125 5.25 49.5625 C7 46 7 46 9.1875 45.0625 C9.785625 45.041875 10.38375 45.02125 11 45 C10.46251198 50.51821029 9.06455579 54.88189097 6.6875 59.875 C6.3471875 60.5980835 6.006875 61.32116699 5.65625 62.06616211 C1.41588994 70.69659671 -4.2427242 78.33322772 -10 86 C-10.59312988 85.78053711 -11.18625977 85.56107422 -11.79736328 85.33496094 C-14.00538096 84.7539091 -14.00538096 84.7539091 -15.64404297 86.03222656 C-16.17143066 86.56299805 -16.69881836 87.09376953 -17.2421875 87.640625 C-17.83386719 88.21683594 -18.42554688 88.79304688 -19.03515625 89.38671875 C-19.94587891 90.30904297 -19.94587891 90.30904297 -20.875 91.25 C-25.04005046 95.41505046 -28.55786095 98.54250986 -34 101 C-34.99 101.845625 -35.98 102.69125 -37 103.5625 C-40.06168593 106.05011982 -42.27131344 106.88932741 -46 108 C-47.67016516 108.99414593 -49.33720673 109.9935725 -51 111 C-52.33333333 111.33333333 -53.66666667 111.66666667 -55 112 C-55.763125 112.474375 -56.52625 112.94875 -57.3125 113.4375 C-62.5449415 116.47961715 -68.09438871 117.15634124 -74 118 C-76.33498858 118.66084583 -78.66816393 119.32811503 -81 120 C-91.84534369 123.06589523 -105.54601674 124.11846225 -116.09765625 119.66796875 C-119.39987896 118.50846139 -122.53805722 118.81116676 -126 119 C-126.33 118.01 -126.66 117.02 -127 116 C-129.475 116.495 -129.475 116.495 -132 117 C-132 116.34 -132 115.68 -132 115 C-134.97 115 -137.94 115 -141 115 C-141.33 113.68 -141.66 112.36 -142 111 C-144.31 110.34 -146.62 109.68 -149 109 C-149 108.34 -149 107.68 -149 107 C-149.62648437 106.90203125 -150.25296875 106.8040625 -150.8984375 106.703125 C-151.71570313 106.55359375 -152.53296875 106.4040625 -153.375 106.25 C-154.18710938 106.11078125 -154.99921875 105.9715625 -155.8359375 105.828125 C-158.63449666 104.75719622 -158.71416735 103.60696267 -160 101 C-162.13583451 99.98524024 -162.13583451 99.98524024 -164.5625 99.4375 C-167.00390625 98.80859375 -167.00390625 98.80859375 -169 98 C-169.33 97.01 -169.66 96.02 -170 95 C-172.00016466 93.79117904 -172.00016466 93.79117904 -174 93 C-174 92.34 -174 91.68 -174 91 C-174.8353125 90.9071875 -174.8353125 90.9071875 -175.6875 90.8125 C-179.01529218 89.64327572 -180.73133832 87.64677196 -183 85 C-183 84.01 -183 83.02 -183 82 C-183.66 82 -184.32 82 -185 82 C-185.33 80.68 -185.66 79.36 -186 78 C-182.74503025 79.45810862 -180.32705338 81.31027168 -177.625 83.625 C-155.46439348 101.58160911 -126.184744 109.16879994 -98.01538086 106.48461914 C-71.67324091 103.6790338 -48.51493203 92.91618442 -30 74 C-29.29101562 73.06671875 -28.58203125 72.1334375 -27.8515625 71.171875 C-27.24054688 70.45515625 -26.62953125 69.7384375 -26 69 C-25.01 69 -24.02 69 -23 69 C-22.73703125 68.2678125 -22.4740625 67.535625 -22.203125 66.78125 C-20.99147562 63.98029429 -19.5917178 61.92243962 -17.75 59.5 C-7.29749458 44.85345394 -2.46028914 27.14855812 -0.875 9.4375 C-0.74544922 8.06754883 -0.74544922 8.06754883 -0.61328125 6.66992188 C-0.40379445 4.44703416 -0.19945316 2.22380651 0 0 Z " fill="#42BC08" transform="translate(249,127)"/>
<path d="M0 0 C0 3.38226642 -0.75681082 4.81262896 -2.25 7.8125 C-9.84644285 24.41213437 -12.16232633 42.33092634 -6.2734375 59.9140625 C-4.23306493 64.85852364 -1.80151919 69.44849075 1 74 C1.598125 75.010625 2.19625 76.02125 2.8125 77.0625 C13.89523347 91.9450278 29.4851349 103.75430397 48.02734375 107.3984375 C68.58571926 110.23143524 87.4668478 106.09024481 104.375 94.125 C111.83701009 88.0362645 118.31163919 81.43904946 123 73 C126.58300601 76.21551821 128.58684188 78.14357997 129 83 C126.642169 91.06269795 120.79759638 97.19257718 115 103 C114.38382813 103.62777344 113.76765625 104.25554687 113.1328125 104.90234375 C98.28000657 118.95832533 78.38301872 124.74927487 58.33203125 124.2421875 C34.72153199 123.18398452 16.05677207 111.64808115 0.40820312 94.61962891 C-11.85706548 80.51286887 -17.62634184 61.50753148 -17 43 C-15.72578805 28.35002506 -10.60681972 10.60681972 0 0 Z " fill="#000100" transform="translate(78,90)"/>
<path d="M0 0 C43.89 0 87.78 0 133 0 C133 23.3154888 127.24658683 43.81867996 114 63 C113.18600393 64.22817643 112.37321457 65.457155 111.5625 66.6875 C111.046875 67.450625 110.53125 68.21375 110 69 C109.34 68.67 108.68 68.34 108 68 C108.51949219 67.20078125 109.03898437 66.4015625 109.57421875 65.578125 C119.39350783 50.11410597 125 34.50585051 125 16 C86.06 16 47.12 16 7 16 C6.67 21.94 6.34 27.88 6 34 C4.02 34 2.04 34 0 34 C0 22.78 0 11.56 0 0 Z " fill="#000000" transform="translate(116,127)"/>
<path d="M0 0 C0.33 0.99 0.66 1.98 1 3 C1.66 3 2.32 3 3 3 C3 3.66 3 4.32 3 5 C3.9590625 5.185625 3.9590625 5.185625 4.9375 5.375 C5.618125 5.58125 6.29875 5.7875 7 6 C10.82610421 13.65220842 7.42848663 24.34550539 5 32 C4.61274659 33.49688336 4.23645437 34.99667843 3.875 36.5 C3 40 3 40 2 43 C1.01 43.495 1.01 43.495 0 44 C-0.69162988 45.84961364 -0.69162988 45.84961364 -1.25 48.0625 C-2.63283461 52.48476296 -4.64123023 55.57592137 -7.52734375 59.1640625 C-9.16695699 61.1471073 -9.16695699 61.1471073 -11 64.0625 C-15.42087374 70.55565831 -20.39380467 75.3381495 -26.61328125 80.14453125 C-28.54202919 81.64396705 -30.36703868 83.18726241 -32.1875 84.8125 C-34.52247768 86.62859375 -36.02624888 87.52017664 -38.6875 88.5625 C-42.16969409 90.07364083 -42.93144905 90.99119862 -45 94 C-48.19165411 96.30508352 -51.17413085 97.34186986 -54.93798828 98.37548828 C-57.18107701 99.05484194 -59.33500728 99.87796071 -61.51953125 100.7265625 C-73.70487677 105.22075519 -84.87835521 106.65987893 -97.75 106.5625 C-98.47611481 106.55881409 -99.20222961 106.55512817 -99.9503479 106.55133057 C-113.35164882 106.42967799 -125.32235933 104.32895047 -138 100 C-138 99.34 -138 98.68 -138 98 C-137.32533691 98.09087891 -136.65067383 98.18175781 -135.95556641 98.27539062 C-132.84623379 98.69032295 -129.73566885 99.09521191 -126.625 99.5 C-125.56410156 99.64308594 -124.50320312 99.78617187 -123.41015625 99.93359375 C-94.73399991 103.62806788 -65.15858883 96.63688663 -42 79 C-36.88613354 74.81991911 -31.85592793 70.44307604 -27.8515625 65.171875 C-27.24054688 64.45515625 -26.62953125 63.7384375 -26 63 C-25.01 63 -24.02 63 -23 63 C-22.73703125 62.2678125 -22.4740625 61.535625 -22.203125 60.78125 C-20.99147562 57.98029429 -19.5917178 55.92243962 -17.75 53.5 C-6.42776413 37.63474641 -2.53047644 18.9247334 0 0 Z " fill="#306F12" transform="translate(249,133)"/>
<path d="M0 0 C14.9361483 -0.58668995 29.23338749 4.43005809 41.82421875 12.15625 C41.82421875 12.81625 41.82421875 13.47625 41.82421875 14.15625 C40.89609375 13.8675 39.96796875 13.57875 39.01171875 13.28125 C28.48190745 10.33745995 18.1322462 9.71081968 7.26171875 9.65625 C6.56667236 9.64625977 5.87162598 9.63626953 5.15551758 9.62597656 C-2.26196559 9.53855779 -8.81646646 9.61578443 -15.45678711 13.29882812 C-17.17578125 14.15625 -17.17578125 14.15625 -20.17578125 14.15625 C-20.17578125 14.81625 -20.17578125 15.47625 -20.17578125 16.15625 C-20.83578125 16.15625 -21.49578125 16.15625 -22.17578125 16.15625 C-22.67078125 17.64125 -22.67078125 17.64125 -23.17578125 19.15625 C-26.97370967 22.68920667 -30.50573888 24.87091012 -35.17578125 27.15625 C-39.18355583 30.04634487 -42.25039403 33.3799821 -45.23828125 37.28125 C-45.6751123 37.84803467 -46.11194336 38.41481934 -46.56201172 38.9987793 C-50.07695106 43.71160256 -52.46803693 48.51049825 -54.17578125 54.15625 C-54.83578125 54.15625 -55.49578125 54.15625 -56.17578125 54.15625 C-57.16578125 59.43625 -58.15578125 64.71625 -59.17578125 70.15625 C-59.83578125 70.15625 -60.49578125 70.15625 -61.17578125 70.15625 C-61.50242088 87.66309847 -61.50242088 87.66309847 -56.13671875 103.984375 C-55.00965625 106.53171951 -55.20176351 107.59798654 -56.17578125 110.15625 C-66.71543403 93.45859784 -71.64680633 74.97419585 -67.234375 55.3125 C-65.4302426 48.50690757 -63.07825581 41.98946721 -59.2890625 36.015625 C-58.07757177 34.14106036 -58.07757177 34.14106036 -57.375 31.7890625 C-55.78595825 28.30041709 -53.38456848 25.91697515 -50.67578125 23.28125 C-50.13969238 22.7545874 -49.60360352 22.2279248 -49.05126953 21.68530273 C-35.43018463 8.57042043 -18.85913394 1.35433637 0 0 Z " fill="#204016" transform="translate(136.17578125,57.84375)"/>
<path d="M0 0 C-0.53748802 5.51821029 -1.93544421 9.88189097 -4.3125 14.875 C-4.6528125 15.5980835 -4.993125 16.32116699 -5.34375 17.06616211 C-9.58411006 25.69659671 -15.2427242 33.33322772 -21 41 C-21.59312988 40.78053711 -22.18625977 40.56107422 -22.79736328 40.33496094 C-25.00538096 39.7539091 -25.00538096 39.7539091 -26.64404297 41.03222656 C-27.17143066 41.56299805 -27.69881836 42.09376953 -28.2421875 42.640625 C-28.83386719 43.21683594 -29.42554688 43.79304688 -30.03515625 44.38671875 C-30.94587891 45.30904297 -30.94587891 45.30904297 -31.875 46.25 C-36.04005046 50.41505046 -39.55786095 53.54250986 -45 56 C-45.99 56.845625 -46.98 57.69125 -48 58.5625 C-51.06168593 61.05011982 -53.27131344 61.88932741 -57 63 C-58.67016516 63.99414593 -60.33720673 64.9935725 -62 66 C-63.33333333 66.33333333 -64.66666667 66.66666667 -66 67 C-66.763125 67.474375 -67.52625 67.94875 -68.3125 68.4375 C-73.5449415 71.47961715 -79.09438871 72.15634124 -85 73 C-87.33498858 73.66084583 -89.66816393 74.32811503 -92 75 C-102.84534369 78.06589523 -116.54601674 79.11846225 -127.09765625 74.66796875 C-130.39987896 73.50846139 -133.53805722 73.81116676 -137 74 C-137.33 73.01 -137.66 72.02 -138 71 C-140.475 71.495 -140.475 71.495 -143 72 C-143 71.34 -143 70.68 -143 70 C-145.97 70 -148.94 70 -152 70 C-152.33 69.01 -152.66 68.02 -153 67 C-152.34966797 67.09087891 -151.69933594 67.18175781 -151.02929688 67.27539062 C-137.03187232 69.17219242 -123.23831264 70.30916391 -109.125 70.3125 C-107.15950195 70.32023437 -107.15950195 70.32023437 -105.15429688 70.328125 C-94.31879073 70.25084681 -83.86923982 69.74599696 -74 65 C-72.73252664 64.57408656 -71.45716886 64.17107918 -70.17578125 63.7890625 C-69.53962891 63.59570312 -68.90347656 63.40234375 -68.24804688 63.203125 C-66.94902424 62.81512228 -65.64681861 62.43763279 -64.34179688 62.0703125 C-59.6981112 60.63129064 -57.86255033 58.81471219 -55 55 C-52.66796875 53.84765625 -52.66796875 53.84765625 -50.1875 53.0625 C-43.98310987 50.79972242 -40.16875511 47.22582761 -35.625 42.5625 C-33.31640042 40.30886708 -31.0053403 38.43949439 -28.4375 36.5 C-25.07532869 33.947654 -22.55880488 31.37762244 -20 28 C-19.34 28 -18.68 28 -18 28 C-17.71125 27.2575 -17.4225 26.515 -17.125 25.75 C-16.17697356 23.43260203 -15.15154089 21.22082885 -14 19 C-13.34 19 -12.68 19 -12 19 C-11.81824219 18.31292969 -11.63648438 17.62585938 -11.44921875 16.91796875 C-11.19785156 16.01691406 -10.94648438 15.11585938 -10.6875 14.1875 C-10.44386719 13.29417969 -10.20023438 12.40085938 -9.94921875 11.48046875 C-8.96396677 8.90583908 -7.99515611 7.8297822 -6 6 C-5.32650839 4.33607955 -4.6590841 2.66967972 -4 1 C-2 0 -2 0 0 0 Z " fill="#48D105" transform="translate(260,172)"/>
<path d="M0 0 C0.33 0 0.66 0 1 0 C1 1.65 1 3.3 1 5 C1.33 4.34 1.66 3.68 2 3 C3.32 3 4.64 3 6 3 C5.76154393 5.14610465 5.5220535 7.29209943 5.27734375 9.4375 C5.10394017 11.03965135 4.94746524 12.64383025 4.81640625 14.25 C4.30300634 20.11742751 2.88141198 25.42812606 1 31 C0.773125 31.6909375 0.54625 32.381875 0.3125 33.09375 C-4.03575144 45.54556094 -12.08443565 56.42611338 -21 66 C-21.63164062 66.70769531 -22.26328125 67.41539062 -22.9140625 68.14453125 C-29.40831836 75.08876364 -36.99244123 79.99500101 -45 85 C-46.49080078 85.93779297 -46.49080078 85.93779297 -48.01171875 86.89453125 C-53.31032957 90.14973162 -58.21259645 92.76953543 -64.375 93.9375 C-67.40388014 94.56242702 -70.01812913 95.36543206 -72.8125 96.6875 C-76 98 -76 98 -78.4375 97.6875 C-78.953125 97.460625 -79.46875 97.23375 -80 97 C-80 96.01 -80 95.02 -80 94 C-78.16888672 93.36384766 -78.16888672 93.36384766 -76.30078125 92.71484375 C-57.17502156 85.95437296 -36.68544973 76.5281746 -25 59 C-24.01 59 -23.02 59 -22 59 C-21.73703125 58.2678125 -21.4740625 57.535625 -21.203125 56.78125 C-19.99147562 53.98029429 -18.5917178 51.92243962 -16.75 49.5 C-6.46236576 35.08447926 -1.38753627 17.4902598 0 0 Z " fill="#284B17" transform="translate(248,137)"/>
<path d="M0 0 C0.70388855 0.00770416 1.4077771 0.01540833 2.13299561 0.02334595 C28.04430253 0.32220634 28.04430253 0.32220634 38.25 9.5625 C36.5 10.25 36.5 10.25 34.25 10.5625 C32.91150329 9.56942179 31.57848691 8.56892948 30.25 7.5625 C27.58238236 7.31125174 27.58238236 7.31125174 25.25 7.5625 C25.25 6.9025 25.25 6.2425 25.25 5.5625 C24.198125 5.789375 23.14625 6.01625 22.0625 6.25 C18.25 6.5625 18.25 6.5625 16.19140625 5.0703125 C11.65183621 2.74325535 7.37216454 3.42323693 2.375 3.75 C1.40691406 3.79447266 0.43882812 3.83894531 -0.55859375 3.88476562 C-7.25060863 4.2535093 -13.53771437 4.85737438 -19.3125 8.5625 C-22.75 10.5625 -22.75 10.5625 -25.67578125 11.4453125 C-31.09761722 13.41563663 -34.6431788 17.62871902 -38.75 21.5625 C-39.75826724 22.45296056 -40.76873549 23.34093435 -41.78125 24.2265625 C-50.24786952 31.86202082 -54.43412016 40.11585751 -58.75 50.5625 C-59.39984377 51.90411295 -60.05598943 53.24319278 -60.75 54.5625 C-61.41 54.5625 -62.07 54.5625 -62.75 54.5625 C-65.09621916 61.05900325 -65.08247122 67.26688314 -65.0625 74.125 C-65.07861328 75.23552734 -65.09472656 76.34605469 -65.11132812 77.49023438 C-65.11485372 83.38150086 -64.85922793 87.4043706 -61.75 92.5625 C-61.23828125 95.1171875 -61.23828125 95.1171875 -61.0625 97.4375 C-60.96388672 98.60925781 -60.96388672 98.60925781 -60.86328125 99.8046875 C-60.82589844 100.38476562 -60.78851563 100.96484375 -60.75 101.5625 C-59.76 101.5625 -58.77 101.5625 -57.75 101.5625 C-56.76 104.5325 -55.77 107.5025 -54.75 110.5625 C-56.41666667 108.89583333 -58.08333333 107.22916667 -59.75 105.5625 C-60.52923828 104.86640625 -60.52923828 104.86640625 -61.32421875 104.15625 C-63.00078473 102.28217077 -63.53589723 100.77659564 -64.25 98.375 C-65.13070072 95.46554227 -66.07931198 92.82988248 -67.33203125 90.04296875 C-69.4330094 84.49947878 -69.07389659 78.91006646 -68.9375 73.0625 C-68.92396484 71.95390625 -68.91042969 70.8453125 -68.89648438 69.703125 C-68.86138881 66.98906768 -68.8122227 64.27604807 -68.75 61.5625 C-68.09 61.5625 -67.43 61.5625 -66.75 61.5625 C-66.70101562 60.74265625 -66.65203125 59.9228125 -66.6015625 59.078125 C-66.52679688 58.00046875 -66.45203125 56.9228125 -66.375 55.8125 C-66.30539063 54.74515625 -66.23578125 53.6778125 -66.1640625 52.578125 C-65.7771777 49.76043568 -65.19313834 47.9794634 -63.75 45.5625 C-63.09 45.5625 -62.43 45.5625 -61.75 45.5625 C-61.646875 45.046875 -61.54375 44.53125 -61.4375 44 C-59.60990903 37.52035929 -56.65428186 32.6446577 -52.5 27.4375 C-52.04753906 26.84324219 -51.59507813 26.24898437 -51.12890625 25.63671875 C-47.15174745 20.59007187 -42.71967688 17.25945822 -37.125 14.0625 C-34.54547205 12.55528908 -34.54547205 12.55528908 -32.0625 9.875 C-31.299375 9.111875 -30.53625 8.34875 -29.75 7.5625 C-29.09 7.5625 -28.43 7.5625 -27.75 7.5625 C-27.75 6.9025 -27.75 6.2425 -27.75 5.5625 C-18.50423303 0.7685197 -10.22537807 -0.2192117 0 0 Z " fill="#1A7808" transform="translate(143.75,66.4375)"/>
<path d="M0 0 C0.66 0 1.32 0 2 0 C3.35278115 1.98689731 4.68568305 3.98745218 6 6 C6.66 6.33 7.32 6.66 8 7 C8.72159424 8.64363134 9.39351421 10.31050386 10 12 C10.66 11.34 11.32 10.68 12 10 C12.99 13.96 13.98 17.92 15 22 C15.66 21.01 16.32 20.02 17 19 C18.125 22.75 18.125 22.75 17 25 C17.66 25 18.32 25 19 25 C19.495 23.515 19.495 23.515 20 22 C20.66 24.31 21.32 26.62 22 29 C21.06894211 29.98529428 20.12987519 30.96302444 19.1875 31.9375 C18.66542969 32.48277344 18.14335937 33.02804688 17.60546875 33.58984375 C12.91016247 37.71394489 4.96347049 36.22662274 -0.875 36.25 C-2.79505859 36.2809375 -2.79505859 36.2809375 -4.75390625 36.3125 C-5.98753906 36.31765625 -7.22117188 36.3228125 -8.4921875 36.328125 C-9.61995605 36.3374707 -10.74772461 36.34681641 -11.90966797 36.35644531 C-15.37408436 35.95685233 -17.27934896 35.16662064 -20 33 C-20 32.01 -20 31.02 -20 30 C-20.99 30 -21.98 30 -23 30 C-23 29.34 -23 28.68 -23 28 C-24.32 28 -25.64 28 -27 28 C-27 27.34 -27 26.68 -27 26 C-28.32 25.67 -29.64 25.34 -31 25 C-31 24.01 -31 23.02 -31 22 C-30.67 22.33 -30.34 22.66 -30 23 C-28.65016252 23.12185143 -27.29425299 23.17766831 -25.93920898 23.20532227 C-25.07839218 23.22526749 -24.21757538 23.24521271 -23.33067322 23.26576233 C-22.39526199 23.28247482 -21.45985077 23.29918732 -20.49609375 23.31640625 C-19.54307877 23.33718735 -18.59006378 23.35796844 -17.60816956 23.37937927 C-14.5513559 23.44498177 -11.49445344 23.50380918 -8.4375 23.5625 C-6.37043337 23.60567506 -4.30337586 23.64928901 -2.23632812 23.69335938 C2.84235595 23.80067401 7.9211297 23.90191091 13 24 C11.77851377 21.47519099 10.54814299 18.95537216 9.3125 16.4375 C8.97283203 15.73302734 8.63316406 15.02855469 8.28320312 14.30273438 C5.91414314 9.49819216 3.17109206 5.31512878 0 1 C0 0.67 0 0.34 0 0 Z " fill="#20730B" transform="translate(225,62)"/>
<path d="M0 0 C0.5878125 0.8971875 0.5878125 0.8971875 1.1875 1.8125 C2.89949865 4.14542861 2.89949865 4.14542861 5.5625 5.4375 C9.4790877 7.94813314 10.03272261 11.64725177 11 16 C11.99 15.67 12.98 15.34 14 15 C13.125 22.875 13.125 22.875 12 24 C11.896875 25.134375 11.79375 26.26875 11.6875 27.4375 C11.19443403 31.82030858 9.74829918 35.46749691 8.03515625 39.5078125 C7.10064406 41.75769468 6.30563965 43.99390428 5.5625 46.3125 C3.62399243 52.30033449 1.29134886 58.14030547 -1 64 C-1.66 64 -2.32 64 -3 64 C-3.103125 64.556875 -3.20625 65.11375 -3.3125 65.6875 C-4.14178408 68.4769101 -5.34299056 70.6139064 -7 73 C-7.66 73 -8.32 73 -9 73 C-9.26296875 73.59941406 -9.5259375 74.19882813 -9.796875 74.81640625 C-11.06151453 77.11164488 -12.23061164 78.29560991 -14.25 79.9375 C-14.86746094 80.44410156 -15.48492187 80.95070313 -16.12109375 81.47265625 C-16.74113281 81.97667969 -17.36117187 82.48070312 -18 83 C-18.56847656 83.49371094 -19.13695312 83.98742187 -19.72265625 84.49609375 C-23.76257082 88 -23.76257082 88 -26 88 C-26.268125 88.598125 -26.53625 89.19625 -26.8125 89.8125 C-30.19538724 96.0441344 -36.21507478 98.81748248 -42.66796875 101.04296875 C-45.1408191 102.05779008 -46.8821045 103.38818796 -49 105 C-58.57551328 109.2470449 -69.63108606 111.12127848 -80 112 C-77.29257465 110.57497908 -74.65813155 109.49319494 -71.734375 108.59765625 C-70.92613281 108.34693359 -70.11789063 108.09621094 -69.28515625 107.83789062 C-68.44855469 107.58201172 -67.61195313 107.32613281 -66.75 107.0625 C-53.01561658 103.29772912 -53.01561658 103.29772912 -41.5 95.4375 C-39 93 -39 93 -36.6875 92.1171875 C-33.44045235 90.76739734 -31.19527989 88.93987575 -28.5 86.6875 C-27.5821875 85.92824219 -26.664375 85.16898437 -25.71875 84.38671875 C-14.45323386 74.49701995 -5.38230638 63.07680131 0 49 C0.66 49 1.32 49 2 49 C2.10957031 48.33355469 2.21914062 47.66710937 2.33203125 46.98046875 C3.17482248 42.08131647 4.14908895 37.37449574 5.625 32.625 C7.35452192 26.57167328 8.91979388 17.83958776 6 12 C5.01 11.67 4.02 11.34 3 11 C3 10.34 3 9.68 3 9 C2.34 9 1.68 9 1 9 C0.505 4.545 0.505 4.545 0 0 Z " fill="#3BA809" transform="translate(249,127)"/>
<path d="M0 0 C24.42 0 48.84 0 74 0 C71.75 6.75 71.75 6.75 68 10 C68 9.01 68 8.02 68 7 C67.23436234 7.00666183 66.46872467 7.01332367 65.67988586 7.02018738 C58.45583584 7.08035961 51.23190776 7.12600528 44.00767231 7.15543652 C40.29382426 7.17107623 36.58018372 7.19228309 32.86645508 7.22631836 C29.28083959 7.25897295 25.69542338 7.27686576 22.10967064 7.28463173 C20.74334769 7.29016435 19.37703535 7.30096836 18.0107975 7.31719017 C16.09365143 7.33904275 14.17630378 7.34022607 12.2590332 7.34057617 C11.16871292 7.34723801 10.07839264 7.35389984 8.95503235 7.36076355 C5.54102828 6.94396668 3.68524665 6.13789028 1 4 C0.67 2.68 0.34 1.36 0 0 Z " fill="#2D790F" transform="translate(128,161)"/>
<path d="M0 0 C0.99 0.33 1.98 0.66 3 1 C2.67 1.99 2.34 2.98 2 4 C1.34 4 0.68 4 0 4 C-0.33 4.99 -0.66 5.98 -1 7 C-4.79792842 10.53295667 -8.32995763 12.71466012 -13 15 C-17.00777458 17.89009487 -20.07461278 21.2237321 -23.0625 25.125 C-23.49933105 25.69178467 -23.93616211 26.25856934 -24.38623047 26.8425293 C-27.90116981 31.55535256 -30.29225568 36.35424825 -32 42 C-32.66 42 -33.32 42 -34 42 C-34.99 47.28 -35.98 52.56 -37 58 C-37.66 58 -38.32 58 -39 58 C-39.32663963 75.50684847 -39.32663963 75.50684847 -33.9609375 91.828125 C-32.833875 94.37546951 -33.02598226 95.44173654 -34 98 C-42.1257604 85.35510012 -43.62703511 76.86025403 -42 62 C-41.88785156 60.87464844 -41.88785156 60.87464844 -41.7734375 59.7265625 C-41.35578427 56.18424432 -40.33011557 53.28616788 -39 50 C-38.47362376 47.73535805 -38.00552173 45.46594678 -37.5625 43.18359375 C-36.97622595 40.90771046 -36.08193438 39.07867707 -35 37 C-34.71125 36.030625 -34.4225 35.06125 -34.125 34.0625 C-32.89403345 30.71153551 -31.29335834 28.71033258 -29 26 C-28.53335938 25.21367188 -28.06671875 24.42734375 -27.5859375 23.6171875 C-22.20291287 14.73387099 -14.68178711 9.40585944 -6 4 C-4.95070312 3.24332031 -3.90140625 2.48664063 -2.8203125 1.70703125 C-1.88960937 1.14371094 -0.95890625 0.58039063 0 0 Z " fill="#235F11" transform="translate(114,70)"/>
<path d="M0 0 C0.33 1.32 0.66 2.64 1 4 C1.9590625 4.2165625 1.9590625 4.2165625 2.9375 4.4375 C5 5 5 5 6 6 C7.93223995 6.12357078 9.86893799 6.17794458 11.80493164 6.20532227 C13.04614273 6.22526749 14.28735382 6.24521271 15.56617737 6.26576233 C16.9308357 6.28274793 18.29549537 6.29962669 19.66015625 6.31640625 C21.04878875 6.33696936 22.4374149 6.35796566 23.82603455 6.37937927 C27.48714059 6.43466647 31.14830373 6.48404626 34.80950928 6.53222656 C38.54297997 6.58239321 42.27636738 6.63810446 46.00976562 6.69335938 C53.3397733 6.80102218 60.66985005 6.90244894 68 7 C67.6875 9.375 67.6875 9.375 67 12 C66.01 12.66 65.02 13.32 64 14 C64 13.34 64 12.68 64 12 C43.54 12 23.08 12 2 12 C2 11.01 2 10.02 2 9 C0.35 9 -1.3 9 -3 9 C-3.33 7.02 -3.66 5.04 -4 3 C-6.97 2.67 -9.94 2.34 -13 2 C-13 1.67 -13 1.34 -13 1 C-8.59085217 -0.10228696 -4.51617599 -0.07654536 0 0 Z " fill="#35B006" transform="translate(128,161)"/>
<path d="M0 0 C0.66 0.33 1.32 0.66 2 1 C1.16855469 1.92941406 0.33710937 2.85882813 -0.51953125 3.81640625 C-1.61765118 5.06469642 -2.71528154 6.31341739 -3.8125 7.5625 C-4.35970703 8.17158203 -4.90691406 8.78066406 -5.47070312 9.40820312 C-8.98640842 13.43528373 -11.05363304 17.03277328 -13 22 C-13.66 22.66 -14.32 23.32 -15 24 C-16.05374691 26.65727481 -17.04437326 29.30816033 -18 32 C-18.51777614 33.39697027 -19.03851291 34.7928475 -19.5625 36.1875 C-19.90474609 37.10595703 -19.90474609 37.10595703 -20.25390625 38.04296875 C-20.79749644 39.46882574 -21.3968364 40.87379417 -22.02783203 42.26318359 C-23.77232924 47.17423677 -23.32730445 52.2766704 -23.3125 57.4375 C-23.32861328 58.55705078 -23.34472656 59.67660156 -23.36132812 60.83007812 C-23.36484148 66.75008197 -23.13221363 70.81980054 -20 76 C-19.48828125 78.5546875 -19.48828125 78.5546875 -19.3125 80.875 C-19.21388672 82.04675781 -19.21388672 82.04675781 -19.11328125 83.2421875 C-19.07589844 83.82226562 -19.03851563 84.40234375 -19 85 C-18.01 85 -17.02 85 -16 85 C-15.01 87.97 -14.02 90.94 -13 94 C-14.66666667 92.33333333 -16.33333333 90.66666667 -18 89 C-18.77923828 88.30390625 -18.77923828 88.30390625 -19.57421875 87.59375 C-21.25078473 85.71967077 -21.78589723 84.21409564 -22.5 81.8125 C-23.38070072 78.90304227 -24.32931198 76.26738248 -25.58203125 73.48046875 C-27.6830094 67.93697878 -27.32389659 62.34756646 -27.1875 56.5 C-27.17396484 55.39140625 -27.16042969 54.2828125 -27.14648438 53.140625 C-27.11138881 50.42656768 -27.0622227 47.71354807 -27 45 C-26.34 45 -25.68 45 -25 45 C-24.95101562 44.18015625 -24.90203125 43.3603125 -24.8515625 42.515625 C-24.77679688 41.43796875 -24.70203125 40.3603125 -24.625 39.25 C-24.55539063 38.18265625 -24.48578125 37.1153125 -24.4140625 36.015625 C-24.0271777 33.19793568 -23.44313834 31.4169634 -22 29 C-21.34 29 -20.68 29 -20 29 C-19.896875 28.484375 -19.79375 27.96875 -19.6875 27.4375 C-17.84062199 20.88947795 -14.8506996 16.04894126 -10.625 10.8125 C-10.15578125 10.20986328 -9.6865625 9.60722656 -9.203125 8.98632812 C-6.42880688 5.49543889 -3.62408303 2.65546447 0 0 Z " fill="#237F0A" transform="translate(102,83)"/>
<path d="M0 0 C-0.52690406 5.67720569 -2.08360835 10.07595527 -4.5625 15.1875 C-5.0884375 16.29146118 -5.0884375 16.29146118 -5.625 17.41772461 C-8.85244245 24.02263965 -12.68456607 30.04332392 -17 36 C-17.33 34.68 -17.66 33.36 -18 32 C-20.48844042 32 -23.32908177 35.85818006 -25.08984375 37.46875 C-27 39 -27 39 -29 39 C-29.268125 39.598125 -29.53625 40.19625 -29.8125 40.8125 C-31.9895593 44.82287239 -34.95769554 46.92702335 -39 49 C-39.66 48.67 -40.32 48.34 -41 48 C-38.18675008 44.01456261 -35.06339773 41.4382674 -31.16796875 38.6171875 C-24.73174824 34.06856977 -24.73174824 34.06856977 -20 28 C-19.34 28 -18.68 28 -18 28 C-17.566875 26.88625 -17.566875 26.88625 -17.125 25.75 C-16.17697356 23.43260203 -15.15154089 21.22082885 -14 19 C-13.34 19 -12.68 19 -12 19 C-11.81824219 18.31292969 -11.63648438 17.62585938 -11.44921875 16.91796875 C-11.19785156 16.01691406 -10.94648438 15.11585938 -10.6875 14.1875 C-10.44386719 13.29417969 -10.20023438 12.40085938 -9.94921875 11.48046875 C-8.96396677 8.90583908 -7.99515611 7.8297822 -6 6 C-5.32650839 4.33607955 -4.6590841 2.66967972 -4 1 C-2 0 -2 0 0 0 Z " fill="#3BC403" transform="translate(260,172)"/>
<path d="M0 0 C0.66 0 1.32 0 2 0 C3.35278115 1.98689731 4.68568305 3.98745218 6 6 C6.66 6.33 7.32 6.66 8 7 C8.72159424 8.64363134 9.39351421 10.31050386 10 12 C10.66 11.34 11.32 10.68 12 10 C12.20496094 10.83144531 12.40992188 11.66289063 12.62109375 12.51953125 C12.89050781 13.60621094 13.15992188 14.69289063 13.4375 15.8125 C13.70433594 16.89144531 13.97117188 17.97039062 14.24609375 19.08203125 C14.76077412 21.0740843 15.34937175 23.04811524 16 25 C13.65790374 27.98178775 12.52115842 28.92828095 8.70019531 29.45410156 C7.42241211 29.4331543 6.14462891 29.41220703 4.828125 29.390625 C3.8044986 29.38213531 3.8044986 29.38213531 2.76019287 29.37347412 C0.58940238 29.35115636 -1.57971206 29.30097508 -3.75 29.25 C-5.2252365 29.22992876 -6.70049899 29.21167907 -8.17578125 29.1953125 C-11.78439501 29.1513088 -15.39203381 29.08231583 -19 29 C-19 28.34 -19 27.68 -19 27 C-19.639375 26.87625 -20.27875 26.7525 -20.9375 26.625 C-21.9584375 26.315625 -21.9584375 26.315625 -23 26 C-23.33 25.34 -23.66 24.68 -24 24 C-11.79 24 0.42 24 13 24 C6.09173801 9.14372554 6.09173801 9.14372554 0 1 C0 0.67 0 0.34 0 0 Z " fill="#205213" transform="translate(225,62)"/>
<path d="M0 0 C9.22379914 1.31768559 16.85855714 5.70451481 25 10 C25 10.66 25 11.32 25 12 C24.071875 11.71125 23.14375 11.4225 22.1875 11.125 C11.6576887 8.18120995 1.30802745 7.55456968 -9.5625 7.5 C-10.25754639 7.49000977 -10.95259277 7.48001953 -11.66870117 7.46972656 C-19.15413906 7.38150691 -25.69667296 7.48276568 -32.37866211 11.24023438 C-33.18122437 11.61631836 -33.18122437 11.61631836 -34 12 C-34.66 11.67 -35.32 11.34 -36 11 C-30.06303547 5.61962589 -23.84917606 3.87213067 -16 3 C-15.05125 2.814375 -14.1025 2.62875 -13.125 2.4375 C-9.06720475 1.86940866 -5.08973989 1.9182052 -1 2 C-0.67 1.34 -0.34 0.68 0 0 Z " fill="#1C5511" transform="translate(153,60)"/>
<path d="M0 0 C0.33 0 0.66 0 1 0 C1.70994471 7.09944714 -1.25916973 11.93774305 -5.57421875 17.2265625 C-7.91466765 20.02380001 -10.30830688 22.77224421 -12.71728516 25.51049805 C-13.88878119 26.87085154 -15.00622654 28.2772765 -16.1171875 29.6875 C-17.83765703 31.8006078 -19.55592823 33.54877583 -21.625 35.3125 C-22.21539062 35.82425781 -22.80578125 36.33601563 -23.4140625 36.86328125 C-25 38 -25 38 -27 38 C-27.2784375 38.86625 -27.2784375 38.86625 -27.5625 39.75 C-29.31258882 42.48926945 -31.37800291 43.44616648 -34.20703125 44.93359375 C-36.26059371 46.05536679 -36.26059371 46.05536679 -38.5 48.5 C-48.01314384 58.01314384 -64.7166799 62.74052712 -77.94140625 63.07421875 C-78.62074219 63.04972656 -79.30007812 63.02523437 -80 63 C-77.29257465 61.57497908 -74.65813155 60.49319494 -71.734375 59.59765625 C-70.92613281 59.34693359 -70.11789063 59.09621094 -69.28515625 58.83789062 C-68.44855469 58.58201172 -67.61195313 58.32613281 -66.75 58.0625 C-53.01561658 54.29772912 -53.01561658 54.29772912 -41.5 46.4375 C-39 44 -39 44 -36.6875 43.1171875 C-33.44045235 41.76739734 -31.19527989 39.93987575 -28.5 37.6875 C-27.5821875 36.92824219 -26.664375 36.16898438 -25.71875 35.38671875 C-14.45323386 25.49701995 -5.38230638 14.07680131 0 0 Z " fill="#378D0E" transform="translate(249,176)"/>
<path d="M0 0 C4.6431096 0.74033834 8.86800262 2.29425098 13.25 3.9375 C14.34828125 4.33485352 14.34828125 4.33485352 15.46875 4.74023438 C20.87965104 6.75930208 20.87965104 6.75930208 22 9 C24.54706232 9.65374742 24.54706232 9.65374742 27.5 10.0625 C32.90534351 10.90534351 32.90534351 10.90534351 34 12 C43.3569552 14.55134516 53.06890927 14.43160075 62.6875 14.625 C64.27540981 14.66327461 65.86330097 14.70233147 67.45117188 14.7421875 C71.30062588 14.83713316 75.15017636 14.92152982 79 15 C79 15.33 79 15.66 79 16 C71.75739897 17.14169363 64.62999306 17.28495051 57.3125 17.3125 C56.62591309 17.31545074 55.93932617 17.31840149 55.23193359 17.32144165 C40.89259283 17.33543512 27.15627052 16.01064121 14 10 C13.26910156 9.68675781 12.53820312 9.37351563 11.78515625 9.05078125 C10.19010417 8.3671875 8.59505208 7.68359375 7 7 C7 6.34 7 5.68 7 5 C6.21625 4.731875 5.4325 4.46375 4.625 4.1875 C2 3 2 3 0 0 Z " fill="#3A8C10" transform="translate(90,224)"/>
<path d="M0 0 C22.11 0 44.22 0 67 0 C66.34 1.98 65.68 3.96 65 6 C64.505 4.515 64.505 4.515 64 3 C63.45852325 3.16356995 62.91704651 3.32713989 62.35916138 3.4956665 C59.58985221 4.08768 57.0863014 4.0998475 54.25341797 4.06933594 C53.09897186 4.05892273 51.94452576 4.04850952 50.75509644 4.03778076 C49.51333649 4.02015686 48.27157654 4.00253296 46.9921875 3.984375 C45.71522003 3.96787903 44.43825256 3.95138306 43.12258911 3.93438721 C40.4242441 3.89690132 37.72606905 3.85676304 35.02783203 3.81298828 C31.56655755 3.75784193 28.10535167 3.72139852 24.64379692 3.68935776 C21.34306317 3.65485406 18.04267479 3.59948092 14.7421875 3.546875 C13.49637909 3.53734802 12.25057068 3.52782104 10.9670105 3.51800537 C9.81886871 3.49498352 8.67072693 3.47196167 7.48779297 3.44824219 C6.47393524 3.43412292 5.46007751 3.42000366 4.41549683 3.40545654 C3.61838287 3.27165588 2.82126892 3.13785522 2 3 C1.34 2.01 0.68 1.02 0 0 Z " fill="#275316" transform="translate(135,161)"/>
<path d="M0 0 C2.2929362 0.2598661 4.58430902 0.53353466 6.875 0.8125 C8.15117188 0.96332031 9.42734375 1.11414063 10.7421875 1.26953125 C13.85627126 1.71593988 16.65466019 2.5164384 19.63085938 3.52734375 C24.90618139 5.13347735 29.68108528 5.39088019 35.1640625 5.29296875 C36.54118912 5.28660149 36.54118912 5.28660149 37.94613647 5.28010559 C40.83940678 5.26349497 43.7319451 5.22587775 46.625 5.1875 C48.60285443 5.17243032 50.58071992 5.15874595 52.55859375 5.14648438 C57.37267202 5.11364953 62.18621251 5.06199238 67 5 C63.81619245 7.5394555 61.97155044 8.39265833 57.875 8.625 C54.30089581 8.79582344 54.30089581 8.79582344 51 10 C33.62399407 10.92482324 33.62399407 10.92482324 25.90234375 7.66796875 C22.60012104 6.50846139 19.46194278 6.81116676 16 7 C15.67 6.01 15.34 5.02 15 4 C13.35 4.33 11.7 4.66 10 5 C10 4.34 10 3.68 10 3 C7.03 3 4.06 3 1 3 C0.67 2.01 0.34 1.02 0 0 Z " fill="#4DE003" transform="translate(107,239)"/>
<path d="M0 0 C-2.6631235 2.6631235 -5.67799372 3.34226277 -9.1875 4.4375 C-12.97557695 5.63234616 -16.5911356 6.80235706 -20.17578125 8.53515625 C-29.64674561 12.64845829 -40.7414605 12.3482928 -50.88354492 12.31567383 C-52.93266833 12.31250747 -54.98034954 12.33611106 -57.02929688 12.36132812 C-66.03847664 12.40330411 -74.26890033 11.17224563 -83 9 C-84.66469402 8.65695087 -86.33070739 8.31992356 -88 8 C-88 7.34 -88 6.68 -88 6 C-87.34773438 6.13277344 -86.69546875 6.26554688 -86.0234375 6.40234375 C-85.14945312 6.57894531 -84.27546875 6.75554687 -83.375 6.9375 C-82.51648438 7.11152344 -81.65796875 7.28554687 -80.7734375 7.46484375 C-73.07503953 8.95030927 -65.64302249 9.32439526 -57.8125 9.375 C-57.13502716 9.37956207 -56.45755432 9.38412415 -55.759552 9.38882446 C-40.21650361 9.42600279 -21.71422816 8.87096401 -8 1 C-2.34782609 -1.17391304 -2.34782609 -1.17391304 0 0 Z " fill="#41AB0B" transform="translate(203,231)"/>
<path d="M0 0 C1.32 0.33 2.64 0.66 4 1 C4 1.99 4 2.98 4 4 C4.9590625 4.2165625 4.9590625 4.2165625 5.9375 4.4375 C8 5 8 5 9 6 C10.93223995 6.12357078 12.86893799 6.17794458 14.80493164 6.20532227 C16.04614273 6.22526749 17.28735382 6.24521271 18.56617737 6.26576233 C19.9308357 6.28274793 21.29549537 6.29962669 22.66015625 6.31640625 C24.04878875 6.33696936 25.4374149 6.35796566 26.82603455 6.37937927 C30.48714059 6.43466647 34.14830373 6.48404626 37.80950928 6.53222656 C41.54297997 6.58239321 45.27636738 6.63810446 49.00976562 6.69335938 C56.3397733 6.80102218 63.66985005 6.90244894 71 7 C70.67 8.65 70.34 10.3 70 12 C69.505 10.515 69.505 10.515 69 9 C67.84821259 9.00333092 67.84821259 9.00333092 66.67315674 9.00672913 C59.43406022 9.02677266 52.19497717 9.04199488 44.95586014 9.05181217 C41.23423325 9.05702901 37.51262931 9.0641049 33.79101562 9.07543945 C30.19893926 9.08631093 26.60688495 9.09228588 23.0147934 9.09487724 C21.64488121 9.0967238 20.27497023 9.10032966 18.90506744 9.10573006 C16.98522623 9.11299688 15.06536278 9.11340854 13.14550781 9.11352539 C12.05296692 9.115746 10.96042603 9.11796661 9.83477783 9.12025452 C7.33252085 9.01410591 5.32695341 8.91241978 3 8 C0 2.96428571 0 2.96428571 0 0 Z " fill="#31930A" transform="translate(125,161)"/>
<path d="M0 0 C2 2 2 2 2 5 C1.7215625 6.8871875 1.7215625 6.8871875 1.4375 8.8125 C0.59807393 15.98900176 0.70615556 24.11846669 3 31 C3.19931837 32.78832866 3.36236806 34.58086938 3.5 36.375 C3.77906166 39.99283504 4.2261878 43.45336075 5 47 C4.01 47 3.02 47 2 47 C1.89042969 46.41992188 1.78085938 45.83984375 1.66796875 45.2421875 C1.43013672 44.07042969 1.43013672 44.07042969 1.1875 42.875 C1.03667969 42.10929687 0.88585937 41.34359375 0.73046875 40.5546875 C0.09574239 37.90229544 0.09574239 37.90229544 -1.55078125 35.47265625 C-3.73970492 30.22749954 -3.43375301 25.18646836 -3.375 19.5625 C-3.38660156 18.45583984 -3.39820312 17.34917969 -3.41015625 16.20898438 C-3.38800857 10.03347309 -2.96605281 5.45345689 0 0 Z " fill="#2B9B07" transform="translate(81,121)"/>
<path d="M0 0 C4.875 0.875 4.875 0.875 6 2 C7.93223995 2.12357078 9.86893799 2.17794458 11.80493164 2.20532227 C13.04614273 2.22526749 14.28735382 2.24521271 15.56617737 2.26576233 C16.9308357 2.28274793 18.29549537 2.29962669 19.66015625 2.31640625 C21.04878875 2.33696936 22.4374149 2.35796566 23.82603455 2.37937927 C27.48714059 2.43466647 31.14830373 2.48404626 34.80950928 2.53222656 C38.54297997 2.58239321 42.27636738 2.63810446 46.00976562 2.69335938 C53.3397733 2.80102218 60.66985005 2.90244894 68 3 C67.67 4.32 67.34 5.64 67 7 C67 6.34 67 5.68 67 5 C66.24911102 5.00666183 65.49822205 5.01332367 64.72457886 5.02018738 C57.63329619 5.08040568 50.54210274 5.1260287 43.45063591 5.15543652 C39.8051954 5.17106391 36.15996693 5.19224805 32.51464844 5.22631836 C28.99386651 5.25901717 25.47328799 5.27687501 21.95236588 5.28463173 C19.96157365 5.29283732 17.97086275 5.31623998 15.98019409 5.33988953 C14.75938141 5.34011612 13.53856873 5.34034271 12.28076172 5.34057617 C11.21042694 5.34723801 10.14009216 5.35389984 9.037323 5.36076355 C5.50870139 4.94164512 3.07225007 3.7423057 0 2 C0 1.34 0 0.68 0 0 Z " fill="#2C6412" transform="translate(131,161)"/>
<path d="M0 0 C1 3 1 3 0.36328125 4.90234375 C-1.71197795 8.92171193 -3.67795456 11.87929065 -7 15 C-7.76508524 16.09376807 -8.51357104 17.19923615 -9.25 18.3125 C-11.74718579 21.91183878 -14.72180882 24.55662511 -18.0703125 27.35546875 C-19.77852989 28.81125725 -21.32911742 30.31386593 -22.875 31.9375 C-25 34 -25 34 -27 34 C-27.25394531 34.59683594 -27.50789063 35.19367188 -27.76953125 35.80859375 C-31.08373992 41.71104158 -37.94949661 44.62725357 -44 47 C-44.99 47.66 -45.98 48.32 -47 49 C-49.1875 48.625 -49.1875 48.625 -51 48 C-50.39639648 47.63350342 -49.79279297 47.26700684 -49.17089844 46.8894043 C-37.52862231 39.77554305 -26.46776998 32.90083833 -17 23 C-16.16210938 22.13503906 -15.32421875 21.27007812 -14.4609375 20.37890625 C-9.97512586 15.57894168 -6.23065159 10.71381909 -3 5 C-2.401875 4.01 -1.80375 3.02 -1.1875 2 C-0.795625 1.34 -0.40375 0.68 0 0 Z " fill="#2E5F15" transform="translate(243,180)"/>
<path d="M0 0 C0.71240023 8.58838053 -1.38822878 15.9081731 -4 24 C-4.33 22.68 -4.66 21.36 -5 20 C-6.32 20.33 -7.64 20.66 -9 21 C-9.28875 22.134375 -9.5775 23.26875 -9.875 24.4375 C-10.24625 25.613125 -10.6175 26.78875 -11 28 C-11.66 28.33 -12.32 28.66 -13 29 C-7.7631068 0 -7.7631068 0 0 0 Z " fill="#34B204" transform="translate(265,152)"/>
<path d="M0 0 C0.66 0.99 1.32 1.98 2 3 C1.01 3.33 0.02 3.66 -1 4 C-1 4.66 -1 5.32 -1 6 C-11.96381862 7.53878156 -23.03618138 7.53878156 -34 6 C-34 5.01 -34 4.02 -34 3 C-33.33097656 3.02320313 -32.66195312 3.04640625 -31.97265625 3.0703125 C-21.28548637 3.27114522 -10.45759546 2.27161076 0 0 Z " fill="#2F5E15" transform="translate(167,231)"/>
<path d="M0 0 C0.66 0.33 1.32 0.66 2 1 C0.89205078 1.99966797 0.89205078 1.99966797 -0.23828125 3.01953125 C-2.95850959 5.48219644 -5.64900847 7.97575287 -8.33642578 10.47412109 C-9.85661883 11.8684866 -11.40924079 13.22728348 -12.96484375 14.58203125 C-20.56968808 21.52558477 -24.35333444 28.84282465 -28.26220703 38.25341797 C-29.0907179 40.21475707 -30.01065748 42.11483489 -31 44 C-31.33 44 -31.66 44 -32 44 C-32.37210831 39.65873643 -31.34221021 37.60340032 -29 34 C-28.67 33.154375 -28.34 32.30875 -28 31.4375 C-26.96388026 28.91195813 -25.6298653 27.17315373 -24 25 C-23.75765625 24.28070313 -23.5153125 23.56140625 -23.265625 22.8203125 C-21.52834945 18.94897625 -19.00777411 16.0699822 -16.25 12.875 C-15.48042969 11.94494141 -15.48042969 11.94494141 -14.6953125 10.99609375 C-11.46167234 7.21809708 -8.65523957 4.98474095 -4 3 C-2.64136599 2.03465478 -1.29656863 1.04722851 0 0 Z " fill="#1E8C05" transform="translate(114,77)"/>
<path d="M0 0 C0.391875 0.598125 0.78375 1.19625 1.1875 1.8125 C2.89949865 4.14542861 2.89949865 4.14542861 5.5625 5.4375 C8.53585675 7.34349792 9.02307664 8.66217852 10 12 C10.27650391 12.86625 10.27650391 12.86625 10.55859375 13.75 C12.38125878 23.04075271 9.68490396 32.53836869 6 41 C5.69320312 41.73734375 5.38640625 42.4746875 5.0703125 43.234375 C4.39963876 44.83121724 3.70341827 46.4173089 3 48 C1.40971795 44.8194359 2.94216551 41.88683187 3.875 38.625 C4.24753015 37.28389147 4.61992969 35.94274665 4.9921875 34.6015625 C5.52168031 32.70934402 6.05516289 30.81796246 6.625 28.9375 C7.17899733 26.07518048 7.13157196 23.28637986 7.125 20.375 C7.12886719 18.65410156 7.12886719 18.65410156 7.1328125 16.8984375 C7.19920447 14.06023956 7.19920447 14.06023956 6 12 C5.01 11.67 4.02 11.34 3 11 C3 10.34 3 9.68 3 9 C2.34 9 1.68 9 1 9 C0.67 6.03 0.34 3.06 0 0 Z " fill="#2D8E0A" transform="translate(249,127)"/>
<path d="M0 0 C0.66 0 1.32 0 2 0 C2.01458252 0.589021 2.02916504 1.17804199 2.04418945 1.78491211 C2.11953764 4.50303802 2.21590384 7.22004942 2.3125 9.9375 C2.33505859 10.86369141 2.35761719 11.78988281 2.38085938 12.74414062 C2.62241582 19.00264848 3.77239266 24.1685253 6 30 C7.08123168 33.37802238 8 36.41877694 8 40 C8.99 40 9.98 40 11 40 C11.99 42.97 12.98 45.94 14 49 C12.33333333 47.33333333 10.66666667 45.66666667 9 44 C8.48050781 43.5359375 7.96101563 43.071875 7.42578125 42.59375 C5.74921527 40.71967077 5.21410277 39.21409564 4.5 36.8125 C3.61929928 33.90304227 2.67068802 31.26738248 1.41796875 28.48046875 C-0.6830094 22.93697878 -0.32389659 17.34756646 -0.1875 11.5 C-0.17396484 10.39140625 -0.16042969 9.2828125 -0.14648438 8.140625 C-0.11138881 5.42656768 -0.0622227 2.71354807 0 0 Z " fill="#2A720E" transform="translate(75,128)"/>
<path d="M0 0 C0.66 0.33 1.32 0.66 2 1 C-3.99961197 7.93288494 -9.15775417 11.59331354 -18 14 C-18.74378906 14.22300781 -19.48757812 14.44601563 -20.25390625 14.67578125 C-21.82840105 15.14335849 -23.41300144 15.57680038 -25 16 C-25 16.66 -25 17.32 -25 18 C-26.41377782 18.36552803 -27.83120576 18.71695495 -29.25 19.0625 C-30.43335938 19.35833984 -30.43335938 19.35833984 -31.640625 19.66015625 C-34.10394822 20.01497267 -35.65604132 19.76877544 -38 19 C-34.42877905 17.40149748 -30.92277796 15.92055753 -27.17578125 14.7890625 C-26.53962891 14.59570312 -25.90347656 14.40234375 -25.24804688 14.203125 C-23.94902424 13.81512228 -22.64681861 13.43763279 -21.34179688 13.0703125 C-16.69285876 11.62966297 -14.8719316 9.81117967 -12 6 C-9.4921875 4.70703125 -9.4921875 4.70703125 -6.875 3.8125 C-3.07057831 2.5162651 -3.07057831 2.5162651 0 0 Z " fill="#46C606" transform="translate(217,221)"/>
<path d="M0 0 C11.88 0 23.76 0 36 0 C35.67 0.66 35.34 1.32 35 2 C29.57828669 3.80723777 23.73584832 3.2273632 18.0625 3.25 C16.77408203 3.270625 15.48566406 3.29125 14.15820312 3.3125 C12.30291992 3.32023437 12.30291992 3.32023437 10.41015625 3.328125 C9.27715088 3.3374707 8.14414551 3.34681641 6.97680664 3.35644531 C4 3 4 3 0 0 Z " fill="#209405" transform="translate(206,95)"/>
<path d="M0 0 C0.99 0.33 1.98 0.66 3 1 C2 4 2 4 0.1796875 4.95703125 C-0.58085938 5.23933594 -1.34140625 5.52164063 -2.125 5.8125 C-6.26766142 7.51946033 -9.10064654 9.59031427 -12.36328125 12.6171875 C-14.66218768 14.55946167 -17.32033836 15.66016918 -20 17 C-20.33 17.99 -20.66 18.98 -21 20 C-22.28817344 21.37701298 -23.62804426 22.70644173 -25 24 C-26.11375 25.11375 -26.11375 25.11375 -27.25 26.25 C-27.8275 26.8275 -28.405 27.405 -29 28 C-25.72147385 16.33926265 -15.82127285 10.07036837 -6 4 C-4.95199219 3.24460937 -3.90398437 2.48921875 -2.82421875 1.7109375 C-1.89222656 1.14632812 -0.96023437 0.58171875 0 0 Z " fill="#1F5612" transform="translate(114,70)"/>
<path d="M0 0 C0 4.66785662 -1.42713903 8.14070855 -4 12 C-4.54914063 11.73703125 -5.09828125 11.4740625 -5.6640625 11.203125 C-8.23119033 10.71502956 -8.23119033 10.71502956 -10.5859375 12.984375 C-11.50632813 13.89703125 -12.42671875 14.8096875 -13.375 15.75 C-17.0302218 19.3537398 -20.19686496 22.07874598 -25 24 C-25.66 23.67 -26.32 23.34 -27 23 C-20.7906112 17.47060191 -20.7906112 17.47060191 -17.375 15.4375 C-15.08939864 14.05410971 -13.43718705 12.52991384 -11.6015625 10.60546875 C-7.90242367 6.89730763 -3.90906242 3.48399932 0 0 Z " fill="#43D003" transform="translate(243,201)"/>
<path d="M0 0 C6.63596249 3.25537783 6.63596249 3.25537783 8.375 6.8125 C10.46107906 10.90442432 13.22820278 12.69164924 16.94140625 15.2890625 C19.08056117 17.06695596 19.96878462 18.44704517 21 21 C13.60649895 18.97756249 8.23317328 14.41760229 3 9 C1.30457329 5.87104177 0.68320659 3.52990074 0 0 Z " fill="#339A0A" transform="translate(86,169)"/>
<path d="M0 0 C1.28385175 3.85155526 0.29190137 5.19606819 -1 9 C-1.12375 10.2375 -1.2475 11.475 -1.375 12.75 C-1.82871086 17.0035393 -3.29204671 20.56249061 -4.953125 24.48046875 C-5.95028665 26.88035406 -6.81213434 29.28237211 -7.625 31.75 C-7.86476562 32.47703125 -8.10453125 33.2040625 -8.3515625 33.953125 C-8.9340877 35.79193947 -9.47009618 37.64533663 -10 39.5 C-10.33 40.325 -10.66 41.15 -11 42 C-12.485 42.495 -12.485 42.495 -14 43 C-13.74225629 41.58089348 -13.46816835 40.16475101 -13.1875 38.75 C-12.96126953 37.56664062 -12.96126953 37.56664062 -12.73046875 36.359375 C-12 34 -12 34 -10.55859375 32.1171875 C-8.52642878 29.35670275 -7.81705603 26.66106946 -6.875 23.375 C-5.06417112 17.12834225 -5.06417112 17.12834225 -4 15 C-3.76251742 11.65765254 -3.61728628 8.31649463 -3.4765625 4.96875 C-3.31929688 3.9890625 -3.16203125 3.009375 -3 2 C-2.01 1.34 -1.02 0.68 0 0 Z " fill="#31A207" transform="translate(262,142)"/>
<path d="M0 0 C0.89323975 0.00008057 1.78647949 0.00016113 2.70678711 0.00024414 C9.93788773 0.06291676 16.44537292 0.89845764 23.3125 3.1875 C23.9725 2.8575 24.6325 2.5275 25.3125 2.1875 C27.9375 3.5 27.9375 3.5 30.3125 5.1875 C30.3125 5.8475 30.3125 6.5075 30.3125 7.1875 C29.32636719 6.91035156 28.34023437 6.63320312 27.32421875 6.34765625 C13.4212105 2.72656211 -0.37576776 2.37233199 -14.6875 2.1875 C-14.6875 1.8575 -14.6875 1.5275 -14.6875 1.1875 C-9.81514097 -0.06826264 -4.99630397 -0.00415474 0 0 Z " fill="#1B660D" transform="translate(147.6875,64.8125)"/>
<path d="M0 0 C0.33 0.99 0.66 1.98 1 3 C1.66 3 2.32 3 3 3 C3 3.66 3 4.32 3 5 C3.639375 5.12375 4.27875 5.2475 4.9375 5.375 C5.618125 5.58125 6.29875 5.7875 7 6 C8.39529581 8.79059162 8.16973354 11.13731688 8.1875 14.25 C8.20167969 15.36890625 8.21585937 16.4878125 8.23046875 17.640625 C7.99467313 21.07764584 7.22846663 23.79530445 6 27 C5.67 27 5.34 27 5 27 C5 20.4 5 13.8 5 7 C3.35 7.66 1.7 8.32 0 9 C0 6.03 0 3.06 0 0 Z " fill="#29730F" transform="translate(249,133)"/>
<path d="M0 0 C0.33 0 0.66 0 1 0 C1.02578125 1.05316406 1.0515625 2.10632813 1.078125 3.19140625 C1.4382392 13.3756259 3.05594993 22.24856141 6 32 C6.42845465 33.64280403 6.84777263 35.2880784 7.25 36.9375 C7.4975 37.948125 7.745 38.95875 8 40 C7.01 40 6.02 40 5 40 C4.89042969 39.41992188 4.78085938 38.83984375 4.66796875 38.2421875 C4.43013672 37.07042969 4.43013672 37.07042969 4.1875 35.875 C4.03667969 35.10929687 3.88585937 34.34359375 3.73046875 33.5546875 C3.09962674 30.90311101 3.09962674 30.90311101 1.4375 28.5 C-0.77122778 23.12222802 -0.31401854 17.87348346 -0.1875 12.125 C-0.17396484 10.9596875 -0.16042969 9.794375 -0.14648438 8.59375 C-0.11125821 5.72868882 -0.06199715 2.86458623 0 0 Z " fill="#2E8F0A" transform="translate(78,128)"/>
<path d="M0 0 C7.13574891 0.92074179 13.05370519 3.8888287 18 9 C20.29031244 10.17516031 22.59130339 11.07357823 25 12 C21.96427935 13.33571709 20.86525658 12.94915343 17.6875 11.75 C16.45601568 11.17157555 15.22693512 10.58801248 14 10 C12.69001767 9.43166136 11.37760205 8.86888933 10.0625 8.3125 C9.051875 7.879375 8.04125 7.44625 7 7 C7 6.34 7 5.68 7 5 C6.21625 4.731875 5.4325 4.46375 4.625 4.1875 C2 3 2 3 0 0 Z " fill="#399C0C" transform="translate(90,224)"/>
<path d="M0 0 C2.41703243 2.41703243 2.83849795 3.60845705 3 7 C0.82135002 9.94111036 -0.36649953 10.90488288 -4.02441406 11.45410156 C-5.17651367 11.4331543 -6.32861328 11.41220703 -7.515625 11.390625 C-8.76601562 11.37773438 -10.01640625 11.36484375 -11.3046875 11.3515625 C-13.25761719 11.30128906 -13.25761719 11.30128906 -15.25 11.25 C-16.56742188 11.23195313 -17.88484375 11.21390625 -19.2421875 11.1953125 C-22.49552308 11.14816271 -25.74739625 11.08236044 -29 11 C-29 10.67 -29 10.34 -29 10 C-27.94087402 9.98598145 -27.94087402 9.98598145 -26.86035156 9.97167969 C-23.65619455 9.91794341 -20.45349243 9.83430243 -17.25 9.75 C-16.13882813 9.73582031 -15.02765625 9.72164062 -13.8828125 9.70703125 C-12.81289062 9.67480469 -11.74296875 9.64257812 -10.640625 9.609375 C-9.65610352 9.58842773 -8.67158203 9.56748047 -7.65722656 9.54589844 C-4.30297997 8.85680478 -3.10544905 7.65153093 -1 5 C-0.20318682 2.35815459 -0.20318682 2.35815459 0 0 Z " fill="#208208" transform="translate(244,84)"/>
<path d="M0 0 C3.7537742 1.66432398 6.80777398 4.01559947 10.0625 6.5 C13.00795724 8.7427709 15.91946818 10.94631212 19 13 C19 13.66 19 14.32 19 15 C20.32 15.66 21.64 16.32 23 17 C21.51793505 16.745504 20.03931385 16.47088238 18.5625 16.1875 C17.73878906 16.03667969 16.91507813 15.88585937 16.06640625 15.73046875 C15.38449219 15.48941406 14.70257813 15.24835938 14 15 C13.67 14.01 13.34 13.02 13 12 C10.99983534 10.79117904 10.99983534 10.79117904 9 10 C9 9.34 9 8.68 9 8 C8.443125 7.938125 7.88625 7.87625 7.3125 7.8125 C4.00931958 6.6519231 2.28105267 4.59786554 0 2 C0 1.34 0 0.68 0 0 Z " fill="#43C805" transform="translate(66,210)"/>
<path d="M0 0 C0 3 0 3 -1.2421875 4.60546875 C-1.78101563 5.12753906 -2.31984375 5.64960938 -2.875 6.1875 C-3.40867188 6.71730469 -3.94234375 7.24710938 -4.4921875 7.79296875 C-6 9 -6 9 -8 9 C-8.268125 9.598125 -8.53625 10.19625 -8.8125 10.8125 C-10.9895593 14.82287239 -13.95769554 16.92702335 -18 19 C-18.66 18.67 -19.32 18.34 -20 18 C-17.18838039 14.01687222 -14.06993694 11.43863869 -10.171875 8.625 C-6.60425062 5.95569831 -3.31164199 2.97695477 0 0 Z " fill="#3FBB07" transform="translate(239,202)"/>
<path d="M0 0 C-3.4240787 2.58893756 -5.24694281 3.89430776 -9.5625 4.5 C-13.50825045 5.07392734 -15.13551583 6.30912093 -18 9 C-18.66 8.67 -19.32 8.34 -20 8 C-15.01733759 3.43375606 -7.24056044 -3.62028022 0 0 Z " fill="#1C7B08" transform="translate(127,73)"/>
<path d="M0 0 C0.66 0 1.32 0 2 0 C3.35278115 1.98689731 4.68568305 3.98745218 6 6 C6.66 6.33 7.32 6.66 8 7 C8.72159424 8.64363134 9.39351421 10.31050386 10 12 C10.66 11.34 11.32 10.68 12 10 C12.33 13.3 12.66 16.6 13 20 C12.34 20 11.68 20 11 20 C10.62488281 19.21496094 10.24976563 18.42992188 9.86328125 17.62109375 C6.96524669 11.6717281 3.98688009 6.27675306 0 1 C0 0.67 0 0.34 0 0 Z " fill="#19580C" transform="translate(225,62)"/>
<path d="M0 0 C0.33 0.66 0.66 1.32 1 2 C-0.03258922 4.36104928 -1.11475391 6.59997744 -2.3125 8.875 C-2.63412109 9.50019531 -2.95574219 10.12539062 -3.28710938 10.76953125 C-4.18607462 12.51577586 -5.09280171 14.25801836 -6 16 C-6.67006801 17.33162723 -7.33870963 18.66399204 -8 20 C-8.33 20 -8.66 20 -9 20 C-9.37210831 15.65873643 -8.34221021 13.60340032 -6 10 C-5.690625 9.175 -5.38125 8.35 -5.0625 7.5 C-3.80887644 4.5502975 -2.07697298 2.42313515 0 0 Z " fill="#249705" transform="translate(91,101)"/>
<path d="M0 0 C0.33 0 0.66 0 1 0 C1.46331872 4.54052344 1.17990558 7.2520726 -1.4375 10.9375 C-2.283125 11.948125 -3.12875 12.95875 -4 14 C-4.33 14 -4.66 14 -5 14 C-5.32626196 8.29041573 -3.69235542 4.33450419 0 0 Z " fill="#34BF02" transform="translate(264,152)"/>
<path d="M0 0 C3.29673633 0.59676022 5.1723181 1.68171774 7.6875 3.875 C8.28949219 4.38804687 8.89148438 4.90109375 9.51171875 5.4296875 C11 7 11 7 12 10 C6.29007157 8.91239459 4.25569192 6.22486888 1.1015625 1.6796875 C0.73804687 1.12539062 0.37453125 0.57109375 0 0 Z " fill="#339D08" transform="translate(95,180)"/>
<path d="M0 0 C0.33 0 0.66 0 1 0 C1.06058594 0.97582031 1.12117188 1.95164063 1.18359375 2.95703125 C1.26738281 4.22933594 1.35117188 5.50164062 1.4375 6.8125 C1.51871094 8.07707031 1.59992188 9.34164062 1.68359375 10.64453125 C1.87184547 13.99181893 1.87184547 13.99181893 3 17 C3.12781786 19.67394964 3.04391871 22.32095857 3 25 C0.55119857 21.32679785 -0.12659546 18.86272372 -0.09765625 14.55078125 C-0.09443359 13.70322266 -0.09121094 12.85566406 -0.08789062 11.98242188 C-0.07951172 11.10134766 -0.07113281 10.22027344 -0.0625 9.3125 C-0.05798828 8.41982422 -0.05347656 7.52714844 -0.04882812 6.60742188 C-0.03704983 4.40488013 -0.02060164 2.20247401 0 0 Z " fill="#2FA805" transform="translate(81,135)"/>
<path d="M0 0 C1.41791408 0.45445964 2.83428046 0.91374944 4.25 1.375 C5.43335938 1.75785156 5.43335938 1.75785156 6.640625 2.1484375 C8.86627958 2.95173667 10.90931672 3.89711662 13 5 C13 5.66 13 6.32 13 7 C10.36 6.67 7.72 6.34 5 6 C5 5.34 5 4.68 5 4 C4.360625 3.896875 3.72125 3.79375 3.0625 3.6875 C2.381875 3.460625 1.70125 3.23375 1 3 C0.67 2.01 0.34 1.02 0 0 Z " fill="#1D6D0A" transform="translate(193,84)"/>
<path d="M0 0 C1.32031595 0.56542004 2.6311301 1.15306472 3.9375 1.75 C4.66839844 2.07484375 5.39929688 2.3996875 6.15234375 2.734375 C8 4 8 4 8.75390625 6.140625 C8.83511719 6.75421875 8.91632813 7.3678125 9 8 C9.66 8 10.32 8 11 8 C12.625 10 12.625 10 14 12 C13.67 12.66 13.34 13.32 13 14 C12.22914063 13.21753906 11.45828125 12.43507813 10.6640625 11.62890625 C9.65117427 10.60663943 8.63814616 9.58451119 7.625 8.5625 C7.11710938 8.04623047 6.60921875 7.52996094 6.0859375 6.99804688 C3.31431064 4.142867 3.31431064 4.142867 0 2 C0 1.34 0 0.68 0 0 Z " fill="#115A08" transform="translate(211,48)"/>
<path d="M0 0 C0.66 0.33 1.32 0.66 2 1 C-2.32893185 6.18419194 -6.76564995 10.72706118 -12 15 C-9.18666031 9.02647053 -4.68292025 4.54912253 0 0 Z " fill="#042600" transform="translate(68,47)"/>
<path d="M0 0 C0.66 0.33 1.32 0.66 2 1 C-2.78659975 6.34972913 -7.08787021 7.78021239 -14 9 C-11.72754886 5.59132329 -10.73295216 5.27767323 -7 3.9375 C-3.13510422 2.56324018 -3.13510422 2.56324018 0 0 Z " fill="#41B808" transform="translate(217,221)"/>
<path d="M0 0 C0.33 0.99 0.66 1.98 1 3 C-0.43359375 5.48046875 -0.43359375 5.48046875 -2.4375 8.1875 C-3.09621094 9.08855469 -3.75492188 9.98960938 -4.43359375 10.91796875 C-5.20896484 11.94857422 -5.20896484 11.94857422 -6 13 C-6.33 12.34 -6.66 11.68 -7 11 C-6.328125 9.16015625 -6.328125 9.16015625 -5.25 7.0625 C-4.90453125 6.37285156 -4.5590625 5.68320312 -4.203125 4.97265625 C-2.99605034 2.99352409 -1.70292617 1.56101565 0 0 Z " fill="#0D6401" transform="translate(35,49)"/>
<path d="M0 0 C2.00293347 3.00440021 2.49271626 4.70993945 3.125 8.1875 C3.29257813 9.08855469 3.46015625 9.98960937 3.6328125 10.91796875 C3.75398438 11.60503906 3.87515625 12.29210937 4 13 C0.09530248 10.39686832 -0.06786357 8.50532606 -1 4 C-0.625 1.5625 -0.625 1.5625 0 0 Z " fill="#33A807" transform="translate(85,158)"/>
<path d="M0 0 C0.391875 0.598125 0.78375 1.19625 1.1875 1.8125 C3.20692295 4.2497346 5.30246282 5.39605897 8 7 C8 7.66 8 8.32 8 9 C5.6568787 8.74438677 3.32156597 8.40729228 1 8 C-0.35439668 5.29120665 -0.06501451 2.99066732 0 0 Z " fill="#299C05" transform="translate(249,127)"/>
<path d="M0 0 C6.63934426 1.47540984 6.63934426 1.47540984 8.375 4 C8.58125 4.66 8.7875 5.32 9 6 C9.33 6.66 9.66 7.32 10 8 C6.05205855 6.32971708 3.18203882 3.8204435 0 1 C0 0.67 0 0.34 0 0 Z " fill="#2C8209" transform="translate(89,177)"/>
<path d="M0 0 C0.33 0 0.66 0 1 0 C1 2.31 1 4.62 1 7 C0.34 7 -0.32 7 -1 7 C-1.33 9.31 -1.66 11.62 -2 14 C-2.97919756 10.92449216 -2.98561151 8.97555928 -2.125 5.875 C-1.94195312 5.19179687 -1.75890625 4.50859375 -1.5703125 3.8046875 C-1 2 -1 2 0 0 Z " fill="#26730E" transform="translate(80,112)"/>
<path d="M0 0 C0.66 0.33 1.32 0.66 2 1 C-4.28571429 5.42857143 -4.28571429 5.42857143 -8 6 C-3.375 1.125 -3.375 1.125 0 0 Z " fill="#1A8805" transform="translate(125,72)"/>
<path d="M0 0 C1.32 0.33 2.64 0.66 4 1 C1.69 2.65 -0.62 4.3 -3 6 C-3.66 5.67 -4.32 5.34 -5 5 C-2.75 2.4375 -2.75 2.4375 0 0 Z " fill="#357A12" transform="translate(202,224)"/>
<path d="M0 0 C0.66 0.66 1.32 1.32 2 2 C0.73392393 2.53229326 -0.53810412 3.05044544 -1.8125 3.5625 C-2.52019531 3.85253906 -3.22789062 4.14257812 -3.95703125 4.44140625 C-6 5 -6 5 -9 4 C-6.06279492 2.47700477 -3.0831351 1.19899698 0 0 Z " fill="#306116" transform="translate(190,228)"/>
<path d="M0 0 C3.82946843 1.45255699 5.12050295 3.42895561 7 7 C5.1875 6.875 5.1875 6.875 3 6 C1.25 2.9375 1.25 2.9375 0 0 Z " fill="#37AC06" transform="translate(100,183)"/>
<path d="M0 0 C4.455 0.99 4.455 0.99 9 2 C9 2.33 9 2.66 9 3 C6.36 3 3.72 3 1 3 C0.67 2.01 0.34 1.02 0 0 Z " fill="#4DE202" transform="translate(107,239)"/>
<path d="M0 0 C1.41687119 4.25061356 0.19320039 6.71851625 -1 11 C-1.33 11 -1.66 11 -2 11 C-2.94693195 7.2983569 -3.30443767 5.60887535 -1.5625 2.125 C-1.046875 1.42375 -0.53125 0.7225 0 0 Z " fill="#2CA403" transform="translate(264,159)"/>
</svg>
