<?xml version="1.0" encoding="utf-8"?>
<!-- Generator: Adobe Illustrator 19.2.1, SVG Export Plug-In . SVG Version: 6.00 Build 0)  -->
<svg version="1.1" id="layer" xmlns="http://www.w3.org/2000/svg" xmlns:xlink="http://www.w3.org/1999/xlink" x="0px" y="0px"
	 viewBox="0 0 652 652" style="enable-background:new 0 0 652 652;" xml:space="preserve">
<style type="text/css">
	.st0{fill:#818285;}
	.st1{fill:#FFFFFF;}
	.st2{fill:#38CE4B;}
	.st3{fill:#009BDE;}
</style>
<path class="st0" d="M621.2,287.5h-5l-3.3,11.2l-3.5-11.2h-4.9v15.5h3.8l-0.2-8.2c-0.1-1.6-0.2-2.3-0.3-3.1l0.7,2.4l2.7,8.9h3.5
	l2.6-8.9c0.3-1,0.3-1.2,0.6-2.5c-0.2,1.5-0.3,2.4-0.3,3.2l-0.2,8.2h3.8V287.5z M598.4,290.6h4.7v-3.1h-13.4v3.1h4.8v12.3h3.9V290.6z
	 M568.9,331.7c0,2.3,0.1,4.3-1,6.6c-1.6,3.3-7.3,8.2-17,8.2c-8.8,0-12-4.2-12-8.5c0-3.2,1.8-5.6,4.2-7.2c3.7-2.2,7.9-2.3,11.9-3
	c7.2-1.2,11-2.6,13.9-4V331.7z M589.8,359.7c-2.9-4.6-3.2-6.2-3.2-11.7v-38.4c0-4,0-9.1-1.9-12.9c-0.6-1.2-2.2-3.6-5.3-5.8
	c-4.5-3.2-11.6-5.6-23.6-5.6c-12.8,0-19.6,2.9-24.2,6.6c-7.2,5.8-7.8,13.4-7.9,16.6l17.9,1c0-1-0.1-3.9,1.9-6.4
	c1.9-2.5,6.2-4.5,12.9-4.5c6.5,0,10.1,2.2,11.6,4.9c0.9,1.7,1,4,1,5.9c-5.4,1.9-9.4,2.7-20.2,4.9c-6.7,1.3-12.5,2.2-18.5,6.2
	c-8.9,5.9-10,14-10,18c-0.1,5.8,2.1,9.7,3.2,11.6c6.7,10.7,19.9,11.1,23.5,11.1c5.4,0,10-1.2,14.8-3.3c1.5-0.6,4-1.7,6.7-4l0.4,5.6
	H589.8z M516.5,303.7V286h-1.5c-2.1,0-11.6,0.3-17.4,5.9c-1.8,1.6-3.2,3.7-4.4,5.9v-10.2h-17v72.2h17v-30.9c0-4.2,0-7.8,1.3-11.8
	C498.8,303.7,512.9,303.7,516.5,303.7 M448.2,314.4h-34.3c0.4-2.5,2.3-10.5,10.6-13.9c1.5-0.6,3.5-1.3,7.3-1.3
	c9.5,0,13.3,5.8,15,9.2C447.8,310.9,448.2,314.4,448.2,314.4 M468.2,343.5l-15-8.5c-1,1.6-1.9,2.7-2.5,3.3
	c-2.3,2.5-7.6,6.6-16.7,6.6c-9.1,0-13.5-3.9-16-6.9c-3.7-4.3-4.4-8.8-4.7-11h54.2c-0.4-14-3.8-22.8-7.2-27.9
	c-3.8-5.5-12.5-13.9-28.9-13.9c-21.3,0-30.3,13.3-33.6,20.5c-2.3,5.5-3.2,11.3-3.2,17.3c0,11.3,3.1,21.2,11.4,29
	c10,9.1,21.6,9.7,26.2,9.7c15.1,0,24.9-7.1,29-10.8C464.9,347.9,467,345.1,468.2,343.5 M386.5,359.7v-44.6c0-7.2,0-13.9-4.5-20.2
	c-4.8-6.6-13.6-9.5-21.7-9.5c-8.1,0-13.3,2.6-16.1,4.2c-3.8,2.2-5.6,3.7-7,5.3v-37.1h-17.6v101.9h17.6V321c0-2.3,0-4,0.6-6.2
	c0.6-2.2,1.8-4.3,3.2-6.1c3.7-4.5,8.5-6.9,14.5-6.9c4.8,0,7.6,1.7,9.1,3c5,4.2,4.7,9.4,4.7,15.2v39.7H386.5z M292.6,323.3
	c0,11-4.3,16.7-8.5,19.5c-2.6,1.7-6,2.6-9.1,2.6c-8.8,0-14.8-5.6-17-13.7c-0.7-2.7-1-5.6-1-8.5c0.3-10.7,4.7-16,8.5-18.6
	c1.5-0.9,4.5-2.6,9.1-2.6c7.8,0,14.2,5.1,16.7,12.1C292.6,318,292.6,322,292.6,323.3 M310.6,324.2c0-14.4-6-23.8-9.8-28.3
	c-8.4-9.7-18.8-10.5-23.5-10.5c-11.1,0-17.1,5.6-20.1,8.7v-6.5h-17.6v95.7h17.6v-29.4c7.9,7.2,15.5,8.1,19.9,8.1
	c5.6,0,17.4-1.3,26.1-13.3C310.3,338.9,310.6,328.1,310.6,324.2 M230.7,337.2c0-8.8-5.4-13.9-8.1-15.7c-3.2-2.3-7.6-3.6-11.6-4.5
	c-4-0.9-7.9-1.4-11.9-2.2c-5.9-1-10.7-2.2-12.6-3.6c-0.4-0.3-2.2-2-2.3-4.5c0-1.3,0.6-3.6,3.2-5.3c3.2-2.2,8.2-2.2,8.9-2.2
	c6,0,10.8,1.3,15.4,5.2c1.2,1,3.1,2.7,4.5,5.8l12.5-11.4c-11-12.6-25.8-13.4-31.5-13.4c-15.8,0-24.5,6.8-28.1,12.4
	c-1,1.6-3.4,5.6-3.4,11.1c0,15.6,17,19.6,20.2,20.5c4.7,1.2,9.5,1.7,14.4,2.7c5.4,1.2,7.8,1.3,9.7,3.9c1,1.3,1.2,2.5,1.2,3
	c0,1.4-0.7,3-1.9,4.2c-2.9,3.3-8.1,4.3-12.5,4.3c-2.1,0-11.4-0.3-17.7-5.6c-1.9-1.6-2.8-2.9-3.4-3.6l-13.2,10.5c2.2,2.2,4.5,4,7,5.6
	c4.5,2.7,14.4,7.4,28.1,7.4c17.9,0,27-8.2,30.5-14.9C229.8,344,230.7,340.7,230.7,337.2"/>
<path class="st1" d="M76.8,290.3L76.8,290.3l31.7,31.6c4.7,4.7,4.6,12.2,0,16.9l-40.2-40c-13.8-13.8-8.4-32.2-4.9-37.1
	c-24.5,8-42.3,31.1-42.3,58.3c0,32.9,25.9,59.7,58.3,61.3c15.1-4.1,18.4-22,8.7-31.7l-31.7-31.6c-4.7-4.7-4.6-12.2,0-16.9l40.2,40
	c13.8,13.8,8.4,32.2,4.9,37.1c24.5-8,42.3-31.1,42.3-58.3c0-32.9-25.9-59.7-58.4-61.3C70.4,262.7,67.1,280.7,76.8,290.3"/>
<polygon class="st1" points="92.2,336.7 84.2,328.7 84.2,328.7 93.1,337.7 "/>
<polygon class="st2" points="84,328.6 80.6,311.2 80.4,311 69.7,300.2 62.7,307.2 "/>
<path class="st3" d="M106.5,337l-25.9-25.9l3.4,17.4l8.2,8.2l4.4,4.4c0,0,0,0,0.1,0.1c0.1,0.1,0.1,0.1,0.2,0.2l2.6,2.6L106.5,337z"
	/>
<path class="st1" d="M84.2,328.7l9,8.9L84.2,328.7z"/>
<path class="st2" d="M84,328.6L84,328.6L84,328.6l-21.4-21.4l7-7l-1.3-1.3c-13.9-13.8-8.4-32.2-4.9-37.2
	c-24.6,8-42.3,31.1-42.3,58.4c0,32.9,25.9,59.8,58.4,61.3c15.1-4.1,18.4-22,8.7-31.7l-31.7-31.6c-4.7-4.7-4.7-12.2,0-16.9l27.6,27.5
	L84,328.6z"/>
<polygon class="st1" points="84,328.6 84.2,328.7 92.2,336.7 84,328.6 "/>
<path class="st3" d="M85.4,258.7c-15.1,4.1-18.4,22-8.7,31.7v0l31.8,31.6c1.3,1.3,2.3,2.9,2.8,4.5c0.2,0.6,0.3,1.1,0.5,1.7
	c0.3,1.5,0.3,3.1,0,4.6c-0.3,1.5-0.9,3-1.8,4.3c-0.4,0.7-1,1.3-1.5,1.9l-27.8-27.7l0,0l25.9,25.9l-7,7l-2.6-2.6
	c13.5,13.8,8.1,32,4.6,36.9c24.6-8,42.3-31.1,42.3-58.4C143.8,287.1,117.9,260.2,85.4,258.7"/>
<path class="st1" d="M93.1,337.7l3.7,3.8c-0.1-0.1-0.1-0.1-0.2-0.2L93.1,337.7z"/>
<path class="st1" d="M96.7,341.2C96.7,341.2,96.6,341.2,96.7,341.2l-4.5-4.5l0.9,0.9L96.7,341.2z"/>
<polygon class="st1" points="93.1,337.7 93.1,337.7 96.7,341.2 "/>
<polygon class="st1" points="93.1,337.7 93.1,337.7 96.7,341.2 "/>
</svg>
